<svg xmlns="http://www.w3.org/2000/svg" viewBox="0 0 328.1 114"><g fill-rule="evenodd" clip-rule="evenodd" fill="#FFF"><path d="M174.3 57.5c-1.2-.1 2.7 1.6 2.1 2.1-.7.7-4.2-2.9-6.7-1.9-.1 1.1-1.3 1.1-1.7 1.9.6.6 2.5 1 2.2 1.5-.6.8-2.6-1-4.1-1.1-1.5 0 2.3 2.2 1.7 2.9-.9.8-2.3-2-3.6-2.7-1.2.4-4.2 1.8-4.2.8.1-.8 2.4-1 3.4-1.7-.5-3.9-1.2-7.8-2.9-10.5-.5-.9 1.2-1.1 1.9-2.9-2.2-.6-4-1.7-5.7-2.7-7.7.5-11 .5-14.5-1.3-.1-.1-.6-.4-.6-.8-.1-1.2 2-1.2 3.5-1.2 1.5-1.2 3.3-2.2 5.3-2.9-6.6-8.2-12.7-14.9-19.1-24.2-1.9-2.7-3.9-4.9-4.6-7.6-.3-1.2.6-1.3 1.1-1.5-.3-.6-.7-1.3-.6-2.1.4-2.4 3.7-1.6 4.4.2.4-.3.9-.8 1.7-.6 2.2.5 2.6 2.5 4 4.6 3.7 5.7 7.4 11.5 11.3 17.1 2.4 3.4 4 5.8 7.4 7.1 1 .4 2.5.6 2.5.6 1.6.3 5.3.3 8.4-.2 3.8-4.1 11.6-4.7 18.9-4.6-.2-5 5-7.8 9.2-5.8 1.8-.4 4.1-1.2 6.2-.9-1.8 2.1-4.3 3-4.3 3.9.5 3.8-1.2 5.4-4.2 5.7-1 10.9-9.1 14.8-18.9 17-1 .3-1.1 2.2-1.7 3.2 1 2 1.4 4.6 2.5 6.5.7.2 4-.6 4.4.2.4.9-3.3-.2-4 .6-.7.8 4.5 1.1 4.2 2.1-.3.6-3.3-.7-4.9-.8zM144 25.2c-4.6-5.4-9.8-12.9-13.9-18.5-.5-.6-1.5-1.8-2.3-1.9-1.1-.1 3.4 6.2 5.5 9 2.8 4 5.9 7.9 8.9 11.2l2.5 2.7c1.4 1.5 3.3 3.9 5.1 5.8.9.9 1.8 2.5 3.1 2.6 1.5.2 2.6-1.1 4.6-.4.5-2.5 3.3-2.7 5-4-3.2-.3-5.8 0-8.4-1.3-2.1-1-3-2.3-4.4-4-4.4-5.6-8.8-13-12.6-19-1.3-1.9-2.2-5.1-4.8-5.1-.9 0 1.4 3.5 2.3 4.8 2 2.9 9.1 13.2 10.6 15.3.9 1.3 2.2 2.4 2 3.8-5.8-7.6-10.8-15.2-16.1-23.3-1.7-2.7-5.1-3.3-.9 2.4 4.5 7.5 9 12.9 13.8 19.9zm50.5-4.4c-4.2-2.1-7.9 1.3-8.1 5.6-6.2.4-14 .1-17.8 3.9 1.4.7 4.8-.5 5.9.6-2 1.5-8.3-1-10.1 1.5 1.7 1.1 4.6 0 6.5 1.1-4.9 1.9-9.8-2.5-12 2.3 1.3.7 4.5-.2 5.9.6-2.9 2.3-9-1.3-11.1 1.1 1.5 1.1 5.1.2 6.7 1.3-2.7 1.8-7.4-1.6-10.1-.2 1.4.7 4.6.6 6.1 1.7-3.2 1.5-7.2-2.9-9.5-.6 1.2 1.5 4.2-.2 4.8 1.3-2.6 1.4-5.3-.8-8.2 0 2.5 2.6 9.5 1.7 13.2 1.1 4.5-.8 9.7-1.2 14.3-2.8 1.7-.6 3-1.5 4.4-2 4.3-1.5 10.1-3.2 6.7-7.4 1.2-.4 2.1.7 2.3 1.7.7 3.8-3.7 5.1-7.1 6.3-4.4 1.6-7.8 3.2-11.6 4-.8 3.1-2.5 5.2-4.2 7.4.8 2.3 2 4.8 2.4 7.4.2 1-.1 2.5.9 3.1.9-3.9-2.4-7.2-1.5-10.3.5-1.7 3-2.7 4.2-4.2.8-1.1 2-3.5 2.3-2.3 0 .8-.1 1.1-.2 1.8 9.7 0 18.9-4.4 21-12.7.5-1.9.2-3 1-4 .9-1.1 3.4-.2 3.9-2.2.3-1.3-.2-2.2 0-3 .3-1.1 3.4-2.5 2.5-2.6-.8-.4-3.4.6-3.5.5zm-31.2 10.6c-.2 0-.4 0-.4.2.2 0 .4 0 .4-.2zm-10.7 6.1c.2.1-.1-.1 0 0zm6.5 5.7c1.6 1.9 5.3 2.1 5.5-1.1-1.1.1-1.7.6-2-.3 0 1.4-4.1.6-3.5 1.4zm-.8 0c.3.7.5-.9 0 0zm5 2.1c-.2 0-.4 0-.4.2.2-.1.4 0 .4-.2zm1.1 4.8c1.1 3.1 1.7 7.3 2.7 9.7 1.1-.2-.7-2.2 1-1.9.9-.4-.8-.3-.6-1.1.2-.6 1.8-.4 2.9-.8-.2-3.8-3.2-6.6-1.3-10.1-2 .9-3.5 2.4-4.7 4.2zm5-.8c1.5 1.9 1.3 6.1 3.4 7.6 1.1-3.5-3.3-7.3-1-10.9-1.7-.4-1.9 1.8-2.4 3.3zm-7.3-1.5c.1.1-.1-.1 0 0zm3.3 9.2c.2.2 0-.1 0 0zm.7 2.6c.1.1-.1-.1 0 0z"/><path d="M193 22.4c-.2.3-.1.4.2.4-.1 1.3-1.4 1.7-2.3 1.1-.2-1.3.9-2.2 2.1-1.5zM180.2 30.3c-.9 1.2.3 1.7 0 2.5-2.4.5-2-2.7 0-2.5zM176.4 31c-.9 1.6 1 1.3 1.1 2.5-1.4.2-2.5-.4-2.3-1.3.1-.6.5-1.1 1.2-1.2zM175.1 33.9c-.7 1.2.9 1.3.4 2.1-2.5.6-2.4-2.9-.4-2.1zM167.1 34.8c-.4 1-.1 1.5.4 2.1-.6.5-1.3-.1-1.7-.4 0-1.1.4-1.7 1.3-1.7zM170.7 35.4c-.7.9.2 1.2.2 2.1-.7.5-1.2-.7-1.9-.8.3-.8.5-1.6 1.7-1.3zM152.6 37.5c-.1-.1.2.1 0 0zM166.1 37.7c-.1.5-.7.5-.8.8-.1.7 1.2 1 .6 1.3-2.7 1-1.8-3.4.2-2.1zM162.1 47.8c-.1-.1.1.1 0 0zM165.4 57c0-.1.2.2 0 0zM166.1 59.6c-.1-.1.1.1 0 0z"/></g><g fill="#FFF"><path d="M0 81.5h2.8v19.6c1.1-1.8 2.8-2.8 5.1-2.8 3.3 0 5.7 2.1 5.7 6.1v9.1h-2.8v-8.9c0-2.6-1.3-3.9-3.6-3.9-2.7 0-4.4 1.7-4.4 4.5v8.2H0V81.5zM23.9 91.4c0-1.1.9-1.9 1.9-1.9 1 0 1.9.8 1.9 1.9 0 1.1-.9 1.9-1.9 1.9-1 0-1.9-.8-1.9-1.9zm.5 7.3h2.8v14.9h-2.8V98.7zM38.2 98.7H41v2.4c.9-1.8 2.8-2.8 5.1-2.8 3.3 0 5.7 2.1 5.7 6.1v9.1H49v-8.9c0-2.6-1.3-3.9-3.6-3.9-2.7 0-4.4 1.7-4.4 4.5v8.2h-2.8V98.7zM61 106.2c0-4.5 3.5-7.8 7.9-7.8s7.9 3.3 7.9 7.8c0 4.4-3.5 7.8-7.9 7.8s-7.9-3.4-7.9-7.8zm12.9 0c0-3.1-2-5.5-5-5.5s-5 2.3-5 5.5c0 3.1 2 5.4 5 5.4s5-2.3 5-5.4zM89 113.6h-2.8V81.5H89V106l6.3-7.3h3.3l-5.6 6.4 6.5 8.5h-3.4l-4.9-6.4s-1.4 1.5-2.2 2.4v4zM107.7 91.4c0-1.1.9-1.9 1.9-1.9 1 0 1.9.8 1.9 1.9 0 1.1-.9 1.9-1.9 1.9-1 0-1.9-.8-1.9-1.9zm.5 7.3h2.8v14.9h-2.8V98.7zM152.6 104.7c.8-2.1 1.3-4.7 1.3-7.8h2.7c0 4-.8 7.4-2.1 10.1l5.4 6.6h-3.6l-3.3-4.1c-2.3 2.9-5.6 4.5-9.4 4.5-5.8 0-10-3.4-10-8.5s3.7-7.5 8-10l-.5-.7c-1.8-2.2-2.4-4.1-2.4-6 0-3.5 2.6-6.2 6.5-6.2 3.8 0 6.1 2.6 6.1 6.1 0 3-2.3 5.2-5.6 7.3l6.9 8.7zm-9.6-7.3c-3.8 2.2-6.5 4.1-6.5 8.1 0 3.7 2.9 6 7 6 3.3 0 5.9-1.4 7.7-4L143 97.4zm5.2-8.8c0-2-1.3-3.6-3.3-3.6-2.2 0-3.6 1.5-3.6 3.7 0 1.6.7 2.9 1.8 4.3l.8 1c2.6-1.5 4.3-3 4.3-5.4zM178.7 101.1v-2.4h1.9v-9.3h2.8v9.3h3.7v2.4h-3.7v8.5c0 1.4.5 2 1.6 2 .7 0 1.2-.3 1.6-.6l1.2 1.9c-.7.6-1.8 1.1-3.1 1.1-2.4 0-4-1.3-4-4.2v-8.6h-2zM197.3 81.5h2.8v19.6c1.1-1.8 2.8-2.8 5.1-2.8 3.3 0 5.7 2.1 5.7 6.1v9.1h-2.8v-8.9c0-2.6-1.3-3.9-3.6-3.9-2.7 0-4.4 1.7-4.4 4.5v8.2h-2.8V81.5zM227.8 111.6c2.3 0 3.7-.8 4.7-1.9l1.7 1.7c-1.4 1.6-3.4 2.6-6.3 2.6-4.8 0-8.1-3.3-8.1-7.8s3.5-7.8 7.8-7.8c4.7 0 7.6 3.7 7.5 8.8h-12.5c.5 2.8 2.3 4.4 5.2 4.4zm4.4-6.7c-.4-2.4-1.9-4.2-4.7-4.2-2.6 0-4.4 1.6-4.8 4.2h9.5zM260.9 111.1v2.5h-2.8V81.5h2.8v19.7c1-1.8 2.9-2.9 5.4-2.9 4.2 0 7.3 3.3 7.3 7.8 0 4.4-3.2 7.8-7.3 7.8-2.6.1-4.4-1-5.4-2.8zm9.8-4.9c0-3.2-2-5.4-5-5.4-2.9 0-4.9 2.2-4.9 5.4 0 3.1 2 5.3 4.9 5.3 3 0 5-2.2 5-5.3zM282.6 91.4c0-1.1.9-1.9 1.9-1.9 1 0 1.9.8 1.9 1.9 0 1.1-.9 1.9-1.9 1.9-1 0-1.9-.8-1.9-1.9zm.5 7.3h2.8v14.9h-2.8V98.7zM296.9 98.7h2.8v2.5c.9-1.9 2.6-2.8 4.3-2.8 1 0 1.7.2 2.3.6l-.9 2.3c-.5-.3-1-.4-1.9-.4-2.2 0-3.9 1.8-3.9 4.8v7.9h-2.8V98.7zM312.6 106.2c0-4.5 3.2-7.8 7.4-7.8 2.4 0 4.3 1 5.4 2.9V81.5h2.8v32.1h-2.8v-2.5c-1.1 1.9-2.9 2.9-5.4 2.9-4.2 0-7.4-3.4-7.4-7.8zm12.9 0c0-3.2-2-5.4-5-5.4s-5 2.2-5 5.4c0 3.1 2 5.3 5 5.3s5-2.2 5-5.3z"/></g></svg>