<svg xmlns="http://www.w3.org/2000/svg" viewBox="0 0 243.9 146.2"><path fill="#906D4F" d="M74.6 55.4c1.1-.1 2 .5 1.8 2.1-.2 2-3.8 6.8-10.9 11.3.5-5.8 5.6-13.1 9.1-13.4m168 2.4c-.3-.2-4 2.2-4.5 2.8-.8 1.1-3.9 7.9-7.5 10.7-3.4 2.6-6.1 3.2-7.3 3.3-2.9.2-3.1-2-3.1-3.8 0-1.8 1-5.6 1.5-7.2.5-1.5 1-2.8.6-2.9-.3-.1-1.6.6-2.3 1-1.5.7-3.4 1.8-5.9 1.8-4.3 0-6.5-2.6-9.5-2.6s-5.7 1.4-10.5 5.6c-.9.7-1.1 1-1.5 1-.3 0-.4-.5-.1-1.4.3-.9 2.8-8.3 3-8.8.3-.7.9-2 .4-2s-4.6 3.8-4.6 3.8c-.2 1-.6 2.6-1.4 4.1-.8 1.5-6.9 10.7-12.7 10.7-1.8 0-2.4-.4-2.3-2.8.1-4.9 2.3-9.2 2-9.7-.3-.5-1.5.8-2 1.3-.6.5-6.6 7.2-9.1 9.3-1 .9-2.7 2.3-4.3 2.3-1.8 0-2-1.5-2-3.2 0-2.7 1.4-7.3 1.6-8 .3-1 .5-1.7-.8-1.3-.9.3-3.1 1-4 2.4-1.2 1.7-8.6 10-17.6 10.5-3.3.2-4.7-1.2-4.2-5.8.4-3.4 2.9-11.3 5.4-18.2.2-.5.5-.9.9-1.2.3-.1.9-.2 1.3-.2 5.5.2 10.8.4 15.6.4 14.6 0 37.5-4.8 38.2-13.2.2-2.2-.8-2.6-.8-2.6.1.6-.2 2.1-.5 2.8-.9 1.9-4.1 10.2-32.3 10.4-7.8.1-13.4-.4-19.2-.9-.5 0-.8-.1-1-.4-.3-.4-.2-.9 0-1.4 1.3-3.5 2.2-5.7 2.3-6.2.6-1.5 1.1-3.1.8-3.2-.4-.1-3.8 2.3-5.1 3.9-.5.6-1.5 3.4-2.7 6.8-2.4-.1-5-.2-7.7-.2-7.3 0-11.6 1.6-14.1 3.3-1.9 1.4-2 2-2 2 1.4-.7 3.2-1.5 6.4-1.9 3.7-.4 9.7-.3 16.3-.1-1.7 5.1-3.5 10.5-4.3 12-1 2-9.7 12.3-18.1 12.7-4.1.2-5-4.2-6.5-7.2-.7-1.4-2-3.6-4.4-3.6-2.4 0-5.5 1.9-10.1 6.4-.7.7-1.3 1.3-1.7 1.1-.5-.2.8-5 1-6.4.2-1.1.1-2.5-1-2.6-1.1-.1-3.2 1.1-4.5 1.9-1.6 1-10.6 11.5-16.7 11.5-3.3 0-4.2-2.5-4.4-4.3 3.1-2 5.8-4 8.1-6 3.9-3.4 5.4-5.5 5.9-7.4.5-2.4-.3-3.6-2.8-3.6-2.4 0-5.6 2.2-7.5 4-2.4 2.2-7.3 7.6-8 13.9-7.4 3.7-17.7 6.7-30.8 6.7-20.8-.1-24-14.3-24-22.6 0-6.2 2-31.5 24.9-46.8 6-4 10.4-4.5 12.9-4.5C49.1 4 55 6.7 54 19.1c-1 11.6-1.8 10.7-2.9 16.9-.5 2.4-.4 4.2 0 4.1.4-.1.2-2.1 1.8-5.7 3.3-7.6 12.3-21.2 13.8-23.2C67.9 9.5 69 8 68.5 7.6c-.2-.2-3.5 1.6-4.7 2.6-1.1 1-6.7 12.4-7 12.7-.3.3-.9.2-.7-.5.2-.7 2.2-6.1 1.9-12.5-.2-7-3.5-9.3-9.1-9.3-5.4 0-15.5 3.5-25.3 12.5-9.3 8.6-22.3 26.8-22.3 44.3 0 14.3 6.8 24.9 25.3 24.9 13.2 0 25.1-4.1 34.6-9.3.1 5 2.9 5.9 4.8 5.9s4.3-.8 6.5-2c5.1-2.8 10.2-8.6 11.8-10.2.9-.9 2.2-2.1 2.9-2.1.7 0 .5 1.7-.1 4-.4 1.5-2.8 8.4-3.3 9.5-.4 1-.5 1.5 0 1.4.5-.1 4.4-2.5 4.4-2.5 1-1.8 5.2-6.8 7.4-8.6 1.9-1.6 3.1-2.4 4.2-2.4 3.5 0 3.9 11.2 9 11.5 5.1.2 12.3-4.3 17.4-8 2-1.4 3.7-3 4.1-3 .5.1-.3 2.6-.4 4.5-.1 1.9-.7 7.6 3.6 7.6 5.6 0 14.4-5.3 16.7-6.8 2.7-1.8 4.4-3.4 4.9-3.4s-.1 1.7-.3 2.6c-.1.9-1.4 7.6 2.4 7.6 3.5.1 8.9-4.9 9.9-5.9s2.9-2.8 3.3-2.8c.6 0 .2 1.6 0 3.2-.1 1.6 0 5.7 2.6 5.7s6.9-3.2 9.8-5.6c2.2-1.8 4.6-4.4 5.2-4.4.5 0-.2 1.8-.6 3.1-.6 1.7-1.6 4.6-1.7 5-.3.9-.6 1.9-.1 1.9.4 0 4-2.6 4-2.6 2-4.4 6-11.7 10.6-11.7 3.2 0 5.3 1.1 7.5 1.3 3.1.2 4.9-.5 6.1-.8 1.6-.3 3.2-1 3.6-.7.3.3-.3 2.2-.7 3.6-.3 1.4-2.9 11.1 2.1 11.1 4.1 0 8.8-3.7 10-4.5 1.3-1 3.4-2.8 4-2.8.7 0 .1 2.1-.2 3.7-.2 1.3-4.7 25.2-12.8 38.2-8.2 13-25.1 27.6-44.8 27.6-22.5 0-30-24.3-30.6-25.9-.8-2.4-2.6-8.9-2.6-8.9-.7 1.2.5 6.7 1.2 9.5 1.3 5.5 9.2 29.5 30 29.5 18 0 34.7-16.4 38-19.3 3.4-3.1 12.7-12.5 17.9-24.7 7.4-17.4 6.7-26.9 12.6-40.5.6-1.9 1.4-2.9 1.1-3.1"/><path fill="#906D4F" d="M111.4 11.6h7.2v1.3h-2.8v7.5h-1.6v-7.5h-2.8v-1.3M123.4 11.6h1.6v3.5h4v-3.5h1.6v8.8H129v-4h-4v4h-1.6v-8.8M136.8 11.6h6.3v1.3h-4.8v2.3h4.5v1.3h-4.5v2.6h4.9v1.3h-6.4v-8.8"/></svg>