<?xml version="1.0" encoding="utf-8"?>
<!-- Generator: Adobe Illustrator 18.1.1, SVG Export Plug-In . SVG Version: 6.00 Build 0)  -->
<svg version="1.1" xmlns="http://www.w3.org/2000/svg" xmlns:xlink="http://www.w3.org/1999/xlink" x="0px" y="0px"
	 viewBox="0 0 16 16" enable-background="new 0 0 16 16" xml:space="preserve">
<g id="Layer_3" display="none">
	<rect x="-233" y="-1653.2" display="inline" fill="#005B7F" width="1070" height="2175.2"/>
	<g display="inline">
		<path fill="#FFFFFF" d="M144.1-1516.8c0-8.2,9.2-14.1,19.9-14.1c13.4,0,19.1,12.3,19.1,23.3c0,24.2-17.5,42.8-38.2,42.8
			c-22.6,0-27.6-13-27.6-28c0-1.7,0-3.4,0.1-5.2c2.8-42.5,19.1-73.5,50.5-73.5c10.6,0,16.3,6.1,16.3,11.6c0,4.8-4,9.2-12.6,9.6
			c1.6-1.4,2.3-3.3,2.3-5.1c0-3.8-3-7.6-7.1-7.6c-3.7,0-23.9,2.3-29.8,61.1c-0.4,4.4-0.7,7.9-0.7,11c0,14.3,4.8,16.8,11.7,16.8
			c9,0,18.8-16.4,18.8-31.5c0-5.8-1.4-13.7-7.5-13.7c-5.2,0-9.2,4.1-12.4,10.7C145-1511.5,144.1-1514.3,144.1-1516.8z"/>
		<path fill="#FFFFFF" d="M265.9-1534.6c0,28.1-16,70.4-44.9,70.4c-24.3,0-29.3-13.7-29.3-37.2c0-38.6,18.7-70.1,49-70.1
			C258.4-1571.5,265.9-1558.4,265.9-1534.6z M213.4-1497.5c0,10.5,1.6,21.3,8.3,21.3c16.1,0,25.7-34.8,25.7-67.6
			c0-11.6-1-20.5-7.6-20.5c-8.5,0-23.3,20.9-25.7,52.7C213.8-1507.6,213.4-1502.7,213.4-1497.5z"/>
		<path fill="#FFFFFF" d="M324.7-1536.2l-10.2,48.1c-0.3,1.6-0.6,3.1-0.6,4.4c0,3.1,1.4,5.4,7.1,5.4c5.7,0,13-7.9,18.7-12.4h4.8
			c-6.5,6.5-22.5,25.3-33.5,25.3c-10.9,0-17.7-4.8-17.7-15.4c0-2.1,0.3-4.5,0.8-7.2l10.2-48.1H324.7z M318.2-1566.2
			c6.2,0,11.3,5.1,11.3,11.3c0,6.2-5.1,11.2-11.3,11.2c-6.2,0-11.2-4.9-11.2-11.2C307.1-1561.1,312-1566.2,318.2-1566.2z"/>
		<path fill="#FFFFFF" d="M371.7-1526.2c0-3.4-2.1-4.8-5.2-4.8c-11.9,0-19.5,23-19.5,38.3c0,8.3,1.7,15.1,10.3,15.1
			c10,0,18.1-5.9,24.6-13.3h4.8c-6.8,7.6-14.4,25.3-39.4,25.3c-11.7,0-19.4-6.5-19.4-23.2c0-20.6,8.9-47.9,36.3-47.9
			c7.6,0,15.5,2,15.5,9.8c0,1.6-0.1,2.8-0.7,4.7c-0.7-0.4-1.8-0.8-3.5-0.8c-1.3,0-2.7,0.3-4.5,0.8
			C371.4-1523.8,371.7-1525,371.7-1526.2z"/>
		<path fill="#FFFFFF" d="M433.8-1516.8c0.8,0.8,2.1,1.3,4.1,1.3c6.6,0,9.6-4.8,14.8-6.9l0.6,3c-4.4,5.5-11.7,10.2-19.9,12.4
			c-2.7,28.4-18.1,42.4-32.2,42.4c-15.1,0-21.6-6.4-21.6-23.2c0-34.8,17.7-49.7,37.2-49.7C430.2-1537.6,433.6-1527.1,433.8-1516.8z
			 M423-1505.7c-4.1,0-5.9-3-5.9-6.4c0-4.1,2.4-8.5,6.2-9.9c-0.4-4.7-2-7.3-5.9-7.3c-13.3,0-18.9,28.8-18.9,40.1
			c0,8.5,4,10.7,9.5,10.7C416.5-1478.4,421.3-1492,423-1505.7z"/>
		<path fill="#FFFFFF" d="M490.1-1465.5c-9.2,0-14.4-4.8-14.4-15.4c0-2.3,0.3-4.5,0.8-7.2l5.4-25.4c0.3-1.3,0.4-2.5,0.4-3.7
			c0-5.1-2.7-8.3-6.5-8.3c-3.4,0-5.9,1-8.9,3l-12,57.1h-20.4l15-70.7h20.4l-1.7,7.6c5.8-4.2,12.3-7.6,18.5-7.6
			c7.8,0,16.3,8.2,16.3,17.8c0,1.1-0.1,2.1-0.3,3.3c-0.7,4.7-6.8,29.5-6.8,32.6c0,2.4,1.1,4.4,5.2,4.4c1,0,2.5,0,3.7-0.4
			C500.8-1466.4,494.9-1465.5,490.1-1465.5z"/>
	</g>
	<g display="inline">
		<g>
			<path fill="#FFFFFF" d="M240.5-1400.2c-0.4,0-0.7-0.1-1-0.5c0.6-0.4,1-1.2,1-2c0-0.8-0.5-1.5-1.7-1.5c-1.3,0-2.1,0.7-2.1,2
				c0,3.6,5.2,3.8,5.2,8.9c0,3.2-2.4,5.3-6.1,5.3c-1.8,0-5.1-0.4-5.1-3.7c0-2.2,1.6-3.3,3.4-3.3c1,0,1.7,0.3,1.9,1.2
				c-1.9,0.2-2.7,0.9-2.7,2.5c0,1.5,1.2,2.2,2.3,2.2c1.8,0,2.5-1.6,2.5-3.3c0-4.3-5-5.3-5-8.7c0-2.4,2.7-4.3,5.5-4.3
				c1.2,0,3.9,0.2,3.9,2.8C242.4-1401.2,241.7-1400.2,240.5-1400.2z"/>
			<path fill="#FFFFFF" d="M248.8-1403.2c0,0-0.3,1.6-0.8,3.6h1.4l-0.2,0.9h-1.4c-1.6,7.3-1.6,7.5-1.6,7.6c0,0.5,0.2,0.9,1.2,0.9
				c0.9,0,2.1-1.3,3-2h0.8c-1.1,1.1-3.7,4.1-5.4,4.1c-1.8,0-2.9-0.8-2.9-2.5c0-1.2,1.2-6.1,1.6-8.1h-0.8l0.2-0.9h0.8l0.7-3.2
				L248.8-1403.2z"/>
			<path fill="#FFFFFF" d="M254.2-1389.7c1.1,0,3.1-1.3,3.9-3h1c-1.3,2.4-3.5,4.7-6.5,4.7c-2.2,0-3.4-1.7-3.4-3.7c0-2.9,1.2-8,5.4-8
				c1.9,0,2.9,0.8,2.9,2.4c0,2.8-3,4.4-5.2,4.7c0,0.4-0.1,0.7-0.1,1C252.3-1390.2,253.3-1389.7,254.2-1389.7z M255.4-1398.6
				c-1.3,0-2.3,2.6-2.8,4.8c2.1,0,3.6-1.8,3.6-3.5C256.2-1397.8,256.1-1398.6,255.4-1398.6z"/>
			<path fill="#FFFFFF" d="M265.6-1401.9c0-0.2,0-0.4,0-0.6c0-0.5-0.4-0.8-0.9-0.8c-0.5,0-1.3,0.3-1.6,1.9l-0.4,1.8h1.7l-0.2,0.9
				h-1.7l-2.6,12.4c-0.7,3.3-2.6,3.9-4.1,3.9c-1.4,0-2.7-1-2.7-2.5c0-2.1,1.8-2.8,4-3.4l2.8-13.1c0.7-3.3,2.7-3.9,4.2-3.9
				c1.4,0,2.7,1,2.7,2.5c0,0.4,0,0.7-0.1,0.9H265.6z M255.3-1384.4c0.5,0,1-0.4,1.3-1.8l0.3-1.3c-1.4,0.5-2.5,1.1-2.5,2.4
				C254.4-1384.8,254.8-1384.4,255.3-1384.4z"/>
			<path fill="#FFFFFF" d="M274.6-1399.6l-1.7,7.8c0,0.3-0.1,0.5-0.1,0.7c0,0.5,0.2,0.9,1.1,0.9c0.9,0,2.1-1.3,3-2h0.8
				c-1.1,1.1-3.7,4.1-5.5,4.1c-1.5,0-2.5-0.6-2.8-1.7c-0.7,0.9-1.7,1.9-3.1,1.9c-2.2,0-2.9-1.6-2.9-2.9c0-4,1.4-8.7,6-8.7
				c0.6,0,1.1,0.2,1.5,0.6l0.1-0.6H274.6z M266.7-1391.5c0,1.4,0.8,1.6,1.3,1.6c0.5,0,1-0.5,1.5-1.1c0-0.2,0.1-0.5,0.1-0.8l1.3-6.1
				c-0.4-0.3-0.8-0.4-1.1-0.4C268.1-1398.3,266.7-1394.6,266.7-1391.5z"/>
			<path fill="#FFFFFF" d="M284.9-1391.8c-0.1,0.3-0.1,0.5-0.1,0.7c0,0.5,0.3,0.9,1.2,0.9c0.9,0,1.3-0.7,2.2-1.4h0.8
				c-1.1,1.1-2.8,3.5-4.6,3.5c-1.8,0-2.9-0.8-2.9-2.5c0-0.4,0-0.7,0.1-1.2l0.9-4.1c0-0.2,0.1-0.4,0.1-0.6c0-0.8-0.4-1.4-1.1-1.4
				c-0.6,0-1,0.2-1.4,0.5l-2,9.3h-3.3l2.4-11.5h3.3l-0.3,1.2c0.9-0.7,2-1.2,3-1.2c1.2,0,2.6,1.3,2.6,2.9c0,0.2,0,0.4,0,0.6
				L284.9-1391.8z"/>
			<path fill="#FFFFFF" d="M297-1398l0.2,0.5c-0.2,0.8-0.6,1.9-1.5,2.4c-0.3,4.8-3,7.2-5.1,7.2c-2.5,0-3.6-1.1-3.6-3.8
				c0-5.6,2.9-8.1,6-8.1c1.1,0,2.2,0.4,2.2,1c0,0.7-0.6,0.9-1,1.1c-0.2-0.5-0.5-0.8-1-0.8c-2.3,0-3.1,4.7-3.1,6.5
				c0,1.4,0.7,1.7,1.6,1.7c1.4,0,2.2-2.5,2.4-4.6c-0.5-0.1-0.6-0.5-0.6-0.9c0-0.8,0.8-1.7,1.5-1.7c0.4,0,0.8,0.1,0.8,0.6
				c0,0.1,0,0.1,0,0.2C296.3-1397,296.5-1397.4,297-1398z"/>
			<path fill="#FFFFFF" d="M313.1-1392c-1.2,3.4-4,4-6.1,4c-3.2,0-4.8-2.3-4.8-4.6c0-2.2,1.4-4.5,4.2-5.1c-1.6-0.9-2.3-2.2-2.3-3.5
				c0-2.1,1.8-4.2,5.1-4.2c2.1,0,4.2,0.9,4.2,3.1c0,1.2-0.4,2.1-1.6,2.1c-0.4,0-0.9-0.1-1.3-0.6c0.6-0.2,1-1.3,1-1.9
				c0-0.4,0-1.7-1.5-1.7c-1.7,0-2.8,1.3-2.8,2.8c0,1.3,0.9,2.8,3,3.8c-2.9,1.2-4,3-4,4.6c0,1.7,1.2,3.1,2.7,3.1
				c1.8,0,2.8-0.7,3.6-2.2L313.1-1392z"/>
			<path fill="#FFFFFF" d="M315.9-1391.8c-0.1,0.3-0.1,0.5-0.1,0.8c0,0.5,0.2,0.9,0.8,0.9c0.2,0,0.4,0,0.6-0.1
				c-0.6,2-1.6,2.1-2.4,2.1c-1.6,0-2.3-1.1-2.3-2.5c0-0.4,0-0.8,0.1-1.2l2.5-12l3.4-0.5L315.9-1391.8z"/>
			<path fill="#FFFFFF" d="M338.6-1391.8c-0.1,0.3-0.1,0.6-0.1,0.9c0,0.5,0.2,0.9,0.9,0.9c0.9,0,1.9-1.4,2.4-2.3h1.1
				c-1.1,1.2-3.1,4.2-4.9,4.2c-1.8,0-2.9-0.8-2.9-2.5c0-0.4,0-0.7,0.1-1.2l0.9-4.1c0-0.2,0.1-0.4,0.1-0.6c0-0.8-0.4-1.4-1.1-1.4
				c-0.5,0-0.9,0.1-1.3,0.4c0.1,0.3,0.1,0.5,0.1,0.8c0,0.2,0,0.3,0,0.5l-1.7,8.1h-3.3l1.7-7.8c0-0.2,0.1-0.4,0.1-0.6
				c0-0.8-0.4-1.4-1.1-1.4c-0.6,0-0.9,0.2-1.4,0.5l-2,9.3h-3.3l2.4-11.5h3.3l-0.3,1.2c0.9-0.7,2-1.2,3-1.2c0.9,0,1.8,0.6,2.3,1.5
				c1-0.8,2.2-1.5,3.4-1.5c1.3,0,2.6,1.3,2.6,2.9c0,0.2,0,0.3,0,0.5L338.6-1391.8z"/>
			<path fill="#FFFFFF" d="M346-1399.6l-0.3,1.1c0.8-0.6,1.7-1.1,2.7-1.1c1,0,1.7,0.6,1.7,1.5c0,0.8-0.6,1.8-1.7,1.8
				c-1.3,0-0.6-1.5-1.3-1.5c-0.7,0-1.1,0.3-1.6,0.7l-1.9,9h-3.3l2.4-11.5H346z"/>
			<path fill="#FFFFFF" d="M360.2-1399.6l-1.7,7.8c0,0.3-0.1,0.5-0.1,0.7c0,0.5,0.2,0.9,1.1,0.9c0.9,0,2.1-1.3,3-2h0.8
				c-1.1,1.1-3.7,4.1-5.5,4.1c-1.5,0-2.5-0.6-2.8-1.7c-0.7,0.9-1.7,1.9-3.1,1.9c-2.2,0-2.9-1.6-2.9-2.9c0-4,1.4-8.7,6-8.7
				c0.6,0,1.1,0.2,1.5,0.6l0.1-0.6H360.2z M352.3-1391.5c0,1.4,0.8,1.6,1.3,1.6c0.5,0,1-0.5,1.5-1.1c0-0.2,0.1-0.5,0.1-0.8l1.3-6.1
				c-0.4-0.3-0.8-0.4-1.1-0.4C353.7-1398.3,352.3-1394.6,352.3-1391.5z"/>
			<path fill="#FFFFFF" d="M366.7-1404.2l-1.1,5.2c0.5-0.4,1.2-0.7,2-0.7c2.2,0,2.9,1.6,2.9,2.9c0,3.6-2,8.7-6.1,8.7
				c-2.3,0-3.8-0.6-3.8-2.6c0-0.3,0-0.7,0.1-1.1l2.6-12L366.7-1404.2z M366.7-1398.2c-0.2,0-1,0.2-1.2,0.3l-1.3,6.2
				c-0.1,0.6-0.2,1-0.2,1.3c0,0.7,0.3,0.9,1,0.9c1.9,0,3-5.2,3-6.9C368-1397.9,367.2-1398.2,366.7-1398.2z"/>
			<path fill="#FFFFFF" d="M376-1389.7c1.1,0,3.1-1.3,3.9-3h1c-1.3,2.4-3.5,4.7-6.5,4.7c-2.2,0-3.4-1.7-3.4-3.7c0-2.9,1.2-8,5.4-8
				c1.9,0,2.9,0.8,2.9,2.4c0,2.8-3,4.4-5.2,4.7c0,0.4-0.1,0.7-0.1,1C374.1-1390.2,375.1-1389.7,376-1389.7z M377.2-1398.6
				c-1.3,0-2.3,2.6-2.8,4.8c2.1,0,3.6-1.8,3.6-3.5C378-1397.8,377.9-1398.6,377.2-1398.6z"/>
			<path fill="#FFFFFF" d="M383-1391.8c-0.1,0.3-0.1,0.6-0.1,0.8c0,0.5,0.2,0.8,0.8,0.8c0.2,0,0.4,0,0.6-0.1c-0.6,2-1.7,2.1-2.4,2.1
				c-1.6,0-2.3-1.1-2.3-2.5c0-0.4,0-0.8,0.1-1.2l1.5-6.9h-0.8l0.2-0.9h0.8l0.7-3.2l3.4-0.5c0,0-0.3,1.6-0.8,3.6h1.4l-0.2,0.9h-1.4
				L383-1391.8z"/>
		</g>
		<g>
			<path fill="none" d="M254.4-1385.1c0,0.3,0.4,0.8,0.9,0.8c0.5,0,1-0.4,1.3-1.8l0.3-1.3C255.5-1387,254.4-1386.4,254.4-1385.1z"/>
			<path fill="none" d="M284.8-1391c0,0.5,0.3,0.9,1.2,0.9c0.2,0,0.4-0.1,0.6-0.1c-0.4-1.9-0.7-3.8-0.7-5.8l-0.9,4.3
				C284.8-1391.5,284.8-1391.2,284.8-1391z"/>
			<path fill="none" d="M352.3-1391.5c0,1.4,0.8,1.6,1.3,1.6c0.5,0,1-0.5,1.5-1.1c0-0.2,0.1-0.5,0.1-0.8l1.3-6.1
				c-0.4-0.3-0.8-0.4-1.1-0.4C353.7-1398.3,352.3-1394.6,352.3-1391.5z"/>
			<path fill="none" d="M256.2-1397.3c0-0.5-0.1-1.3-0.8-1.3c-1.3,0-2.3,2.6-2.8,4.8C254.7-1393.8,256.1-1395.6,256.2-1397.3z"/>
			<path fill="none" d="M378-1397.3c0-0.5-0.1-1.3-0.8-1.3c-1.3,0-2.3,2.6-2.8,4.8C376.5-1393.8,378-1395.6,378-1397.3z"/>
			<path fill="#FFFFFF" d="M335.2-1390.6c0-0.4,0-0.7,0.1-1.2l0.9-4.1c0-0.2,0.1-0.4,0.1-0.6c0-0.8-0.4-1.4-1.1-1.4
				c-0.5,0-0.9,0.1-1.3,0.4c0.1,0.3,0.1,0.5,0.1,0.8c0,0.2,0,0.3,0,0.5l-1.7,8.1h-3.3l1.7-7.8c0-0.2,0.1-0.4,0.1-0.6
				c0-0.8-0.4-1.4-1.1-1.4c-0.6,0-0.9,0.2-1.4,0.5l-2,9.3h-3.3l2.4-11.5h3.3l-0.3,1.2c0.9-0.7,2-1.2,3-1.2c0.9,0,1.8,0.6,2.3,1.5
				c1-0.8,2.2-1.5,3.4-1.5c0.9,0,1.8,0.6,2.3,1.5c-0.8-14.1-12.4-25.2-26.7-25.2c-14.6,0-26.4,11.6-26.7,26.1c0,0.2,0.1,0.3,0.1,0.5
				c0,0.2,0,0.4,0,0.6l0,0.1c0,2,0.3,3.9,0.7,5.8c0.2-0.1,0.3-0.2,0.5-0.3c0-0.3-0.1-0.7-0.1-1.1c0-5.6,2.9-8.1,6-8.1
				c1.1,0,2.2,0.4,2.2,1c0,0.7-0.6,0.9-1,1.1c-0.2-0.5-0.5-0.8-1-0.8c-2.3,0-3.1,4.7-3.1,6.5c0,1.4,0.7,1.7,1.6,1.7
				c1.4,0,2.2-2.5,2.4-4.6c-0.5-0.1-0.6-0.5-0.6-0.9c0-0.8,0.8-1.7,1.5-1.7c0.4,0,0.8,0.1,0.8,0.6c0,0.1,0,0.1,0,0.2
				c0.6-0.4,0.8-0.8,1.3-1.4l0.2,0.5c-0.2,0.8-0.6,1.9-1.5,2.4c-0.3,4.8-3,7.2-5.1,7.2c-1.8,0-2.9-0.6-3.3-1.9
				c-0.2,0.2-0.3,0.3-0.5,0.5c3.1,11.3,13.5,19.6,25.8,19.6c11.8,0,21.8-7.7,25.4-18.3C336.2-1388.1,335.2-1388.9,335.2-1390.6z
				 M316.6-1390.1c0.2,0,0.4,0,0.6-0.1c-0.6,2-1.6,2.1-2.4,2.1c-1.6,0-2.3-1.1-2.3-2.5c-1.4,2.2-3.6,2.7-5.4,2.7
				c-3.2,0-4.8-2.3-4.8-4.6c0-2.2,1.4-4.5,4.2-5.1c-1.6-0.9-2.3-2.2-2.3-3.5c0-2.1,1.8-4.2,5.1-4.2c2.1,0,4.2,0.9,4.2,3.1
				c0,1.2-0.4,2.1-1.6,2.1c-0.4,0-0.9-0.1-1.3-0.6c0.6-0.2,1-1.3,1-1.9c0-0.4,0-1.7-1.5-1.7c-1.7,0-2.8,1.3-2.8,2.8
				c0,1.3,0.9,2.8,3,3.8c-2.9,1.2-4,3-4,4.6c0,1.7,1.2,3.1,2.7,3.1c1.8,0,2.8-0.7,3.6-2.2l0.1,0l2.4-11.5l3.4-0.5l-2.6,12.4
				c-0.1,0.3-0.1,0.5-0.1,0.8C315.7-1390.5,315.9-1390.1,316.6-1390.1z"/>
			<path fill="#FFFFFF" d="M338.5-1390.9c0,0.2,0,0.3,0.1,0.4c0.3-1.2,0.5-2.5,0.6-3.8l-0.5,2.5
				C338.6-1391.5,338.5-1391.2,338.5-1390.9z"/>
			<path fill="#005B7F" d="M285.8-1396.1L285.8-1396.1c0.1-0.2,0.1-0.4,0.1-0.6c0-0.2,0-0.3-0.1-0.5c0,0.2,0,0.4,0,0.6
				C285.8-1396.4,285.8-1396.2,285.8-1396.1z"/>
			<path fill="#005B7F" d="M287.2-1389.8c-0.1-0.2-0.2-0.5-0.2-0.8c-0.2,0.1-0.3,0.3-0.5,0.3c0.1,0.3,0.2,0.6,0.2,0.9
				C286.9-1389.5,287.1-1389.7,287.2-1389.8z"/>
			<path fill="#005B7F" d="M288.9-1391.6c-0.4,0.4-1,1.1-1.6,1.8c0.5,1.4,1.6,1.9,3.3,1.9c2.2,0,4.9-2.4,5.1-7.2
				c0.9-0.6,1.3-1.6,1.5-2.4l-0.2-0.5c-0.5,0.6-0.7,1-1.3,1.4c0-0.1,0-0.1,0-0.2c0-0.5-0.3-0.6-0.8-0.6c-0.7,0-1.5,0.9-1.5,1.7
				c0,0.5,0.2,0.9,0.6,0.9c-0.2,2.1-1,4.6-2.4,4.6c-0.9,0-1.6-0.4-1.6-1.7c0-1.8,0.8-6.5,3.1-6.5c0.5,0,0.8,0.3,1,0.8
				c0.5-0.2,1-0.4,1-1.1c0-0.6-1.1-1-2.2-1c-3.2,0-6,2.5-6,8.1c0,0.4,0,0.7,0.1,1.1c0.3-0.3,0.6-0.6,1.1-1H288.9z"/>
			<path fill="#005B7F" d="M288.9-1391.6h-0.8c-0.4,0.4-0.7,0.7-1.1,1c0,0.3,0.1,0.6,0.2,0.8
				C287.9-1390.5,288.4-1391.2,288.9-1391.6z"/>
			<path fill="#005B7F" d="M312.6-1391.8l0.1-0.4l-0.1,0c-0.8,1.5-1.9,2.2-3.6,2.2c-1.5,0-2.7-1.4-2.7-3.1c0-1.6,1.1-3.4,4-4.6
				c-2.2-1-3-2.5-3-3.8c0-1.5,1.1-2.8,2.8-2.8c1.5,0,1.5,1.3,1.5,1.7c0,0.6-0.4,1.7-1,1.9c0.4,0.5,0.9,0.6,1.3,0.6
				c1.2,0,1.6-0.9,1.6-2.1c0-2.2-2.1-3.1-4.2-3.1c-3.3,0-5.1,2.1-5.1,4.2c0,1.3,0.7,2.6,2.3,3.5c-2.8,0.6-4.2,2.9-4.2,5.1
				c0,2.4,1.6,4.6,4.8,4.6c1.8,0,4-0.5,5.4-2.7c0,0,0,0,0,0C312.4-1391,312.5-1391.4,312.6-1391.8z"/>
			<path fill="#005B7F" d="M318.5-1404.2l-3.4,0.5l-2.4,11.5l0.5,0.2c-0.2,0.5-0.4,1-0.7,1.4c0,1.4,0.7,2.5,2.3,2.5
				c0.8,0,1.7-0.1,2.4-2.1c-0.2,0.1-0.4,0.1-0.6,0.1c-0.6,0-0.8-0.4-0.8-0.9c0-0.3,0-0.5,0.1-0.8L318.5-1404.2z"/>
			<path fill="#005B7F" d="M312.7-1392.2l-0.1,0.4c-0.1,0.4-0.1,0.8-0.1,1.2c0,0,0,0,0,0c0.3-0.4,0.5-0.9,0.7-1.4L312.7-1392.2z"/>
			<path fill="#005B7F" d="M339.2-1394.3l0.4-1.8c0-0.2,0-0.3,0-0.5c0-0.5-0.2-1-0.4-1.4c0,0.5,0,1,0,1.5
				C339.3-1395.8,339.3-1395,339.2-1394.3z"/>
			<path fill="#005B7F" d="M338.5-1390.9c0-0.3,0-0.6,0.1-0.9l0.5-2.5c0.1-0.7,0.1-1.5,0.1-2.2c0-0.5,0-1,0-1.5
				c-0.5-0.9-1.4-1.5-2.3-1.5c-1.1,0-2.3,0.7-3.4,1.5c-0.5-0.9-1.4-1.5-2.3-1.5c-1,0-2,0.6-3,1.2l0.3-1.2h-3.3l-2.4,11.5h3.3l2-9.3
				c0.5-0.3,0.9-0.5,1.4-0.5c0.6,0,1.1,0.5,1.1,1.4c0,0.2,0,0.4-0.1,0.6l-1.7,7.8h3.3l1.7-8.1c0-0.2,0-0.3,0-0.5
				c0-0.3,0-0.5-0.1-0.8c0.4-0.3,0.8-0.4,1.3-0.4c0.6,0,1.1,0.5,1.1,1.4c0,0.2,0,0.4-0.1,0.6l-0.9,4.1c-0.1,0.4-0.1,0.8-0.1,1.2
				c0,1.7,1,2.5,2.7,2.5c0.3-0.8,0.5-1.6,0.7-2.4C338.6-1390.6,338.5-1390.8,338.5-1390.9z"/>
		</g>
	</g>
	<line display="inline" fill="none" stroke="#FFFFFF" stroke-miterlimit="10" x1="220.9" y1="-1396.1" x2="-17.7" y2="-1396.1"/>
	<line display="inline" fill="none" stroke="#FFFFFF" stroke-miterlimit="10" x1="634.9" y1="-1396.1" x2="396.3" y2="-1396.1"/>
</g>
<g id="Layer_1">
	<path fill="#FFFFFF" d="M40-1271.3v-40.1h-52.1v40.1h24v4.9H-4.7v4h37.3v-4H15.9v-4.9H40z M-8.1-1307.3H36v19.9H-8.1V-1307.3z
		 M-8.1-1275.3v-8.2H36v8.2H-8.1z"/>
	<g>
		<path fill="#FFFFFF" d="M142.3-1311.3v49H177v-49H142.3z M173-1307.3v28.4h-26.7v-28.4H173z M146.3-1266.4v-8.6H173v8.6H146.3z"/>
		<circle fill="#FFFFFF" cx="159.6" cy="-1270.8" r="2.5"/>
	</g>
	<g>
		<path fill="#FFFFFF" d="M280.6-1307.3v44.1H330v-44.1H280.6z M284.6-1303.3h28.1v36.1h-28.1V-1303.3z M326-1267.3h-9.3v-36.1h9.3
			V-1267.3z"/>
		<circle fill="#FFFFFF" cx="321.2" cy="-1285.3" r="2.5"/>
	</g>
	<path fill="#FFFFFF" d="M572-1306.4v44.1h49.3v-44.1H572z M617.3-1302.4v7l-20.7,10.9l-20.7-10.9v-7H617.3z M576-1266.4v-24.5
		l20.7,10.9l20.7-10.9v24.5H576z"/>
	<g>
		<path fill="#FFFFFF" d="M476.1-1286.4c0-6.7-3.3-12.6-8.4-15.4v-6h-41.9v45.4h41.9v-8.6C472.8-1273.8,476.1-1279.7,476.1-1286.4z
			 M463.7-1266.4h-24.3v-9.9h-4v9.9h-5.5v-37.4h5.5v23.6h4v-23.6h24.3V-1266.4z M467.7-1275.9v-21c2.7,2.5,4.4,6.3,4.4,10.5
			C472.1-1282.2,470.4-1278.3,467.7-1275.9z"/>
		<polygon fill="#FFFFFF" points="447.6,-1312.5 452.7,-1319.6 447.8,-1319.6 442.6,-1312.5 		"/>
		<polygon fill="#FFFFFF" points="442.8,-1319.6 437.9,-1319.6 432.7,-1312.5 437.7,-1312.5 		"/>
		<polygon fill="#FFFFFF" points="457.5,-1312.5 462.6,-1319.6 457.7,-1319.6 452.6,-1312.5 		"/>
	</g>
	<path fill="#FFFFFF" d="M168.1-1176.2l-10.5,10.5l2.5,2.5l-7.2,6.5l-3.6-3.6l-13.5,11.7l7,7l-3.9,8.1l-5.4,11.3l11.3-5.4l8.1-3.9
		l7,7l11.7-13.5l-3.6-3.6l6.5-7.2l2.5,2.5l10.5-10.5L168.1-1176.2z M142.9-1131.4l-1,0.5l0.5-1l3-6.2l1.9,1.9l1.9,1.9L142.9-1131.4z
		 M174-1154.9l-11.8,13.2l3.7,3.7l-6.4,7.4l-17.9-17.9l7.4-6.4l3.7,3.7l13.2-11.8l-2.7-2.7l4.9-4.9l13.5,13.5l-4.9,4.9L174-1154.9z"
		/>
	<g>
		<path fill="#FFFFFF" d="M37-1120.3h-49.8v-45H5.9l4.5,8.1H37V-1120.3z M-8.8-1124.3H33v-28.9H8.1l-4.5-8.1H-8.8V-1124.3z"/>
	</g>
	<path fill="#FFFFFF" d="M464.3-1164.4v-2.4h-4v2.4h-15.6v-2.4h-4v2.4h-11.6v44.1h46.8v-44.1H464.3z M440.7-1160.4v3.2h4v-3.2h15.6
		v3.2h4v-3.2h7.6v8.9h-38.8v-8.9H440.7z M433.1-1124.3v-23.2h38.8v23.2H433.1z"/>
	<g>
		<path fill="#FFFFFF" d="M614.9-1162.8c-4.2-4.2-9.7-6.4-15.6-6.4c-5.9,0-11.4,2.3-15.6,6.4c-8.6,8.6-8.6,22.5,0,31.1
			c0.3,0.3,0.6,0.6,0.9,0.8l14.7,11.1l14.3-10.8l0.3-0.2c0.3-0.3,0.6-0.6,0.9-0.9C623.5-1140.3,623.5-1154.2,614.9-1162.8z
			 M612.1-1134.5c-0.2,0.2-0.5,0.4-0.7,0.7l-12,9l-11.9-8.9l-0.2-0.1c-0.2-0.2-0.5-0.4-0.7-0.6c-7-7-7-18.4,0-25.5
			c3.4-3.4,7.9-5.3,12.7-5.3c4.8,0,9.3,1.9,12.7,5.3C619.1-1153,619.1-1141.5,612.1-1134.5z"/>
		<circle fill="#FFFFFF" cx="599.3" cy="-1145.8" r="2.5"/>
	</g>
	<path fill="#FFFFFF" d="M305.7-1169.4c-13.5,0-24.5,11-24.5,24.5s11,24.5,24.5,24.5c13.5,0,24.5-11,24.5-24.5
		S319.2-1169.4,305.7-1169.4z M305.7-1165.4c8.9,0,16.5,5.7,19.3,13.7h-9l-0.1,12.5h-8.3v-8.4l4.7-5v-9h-16.2l-4.2,7.6h-4.5
		C290.8-1160.8,297.7-1165.4,305.7-1165.4z M295.8-1126.9l2.5-4.2l1.7,4.5h10.1l1.5,1.4c-1.9,0.6-3.8,0.9-5.9,0.9
		C302.1-1124.3,298.7-1125.3,295.8-1126.9z M315.6-1126.9l-3.9-3.7h-9l-3.7-9.8l-6.6,11.2c-4.4-3.8-7.3-9.4-7.3-15.7
		c0-1.8,0.3-3.6,0.7-5.2h8.3l4.2-7.6h9.9v3.5l-4.7,5v14h16.3l0.1-12.5h6c0.1,0.9,0.2,1.9,0.2,2.8
		C326.2-1137.1,321.9-1130.4,315.6-1126.9z"/>
	<path fill="#FFFFFF" d="M40.8-883.9L14-879.1l-26.8-4.7v41.6l26.9,4.7l12.7-2.2v8.4l6.9-3.2l7,3.1v-10.9l0.1,0V-883.9z M36.8-845.6
		L16-841.9v-33.5l20.8-3.7V-845.6z M-8.8-879.1l20.8,3.7v33.5l-20.8-3.7V-879.1z M36.7-837.5l-3.1-1.4l-2.9,1.3v-2.9l6-1.1V-837.5z"
		/>
	<path fill="#FFFFFF" d="M186.2-846.4v-37.7h-53.4v37.7h24.1v3.1l-11.9,7.2l2.1,3.4l11.8-7.2l11.8,7.2l2.1-3.4l-11.9-7.2v-3.1H186.2
		z M139.5-850.4l14.4-15.3l10.3,9.4l18-20.4v26.4H139.5z M179.8-880.1l-15.9,18l-10.2-9.3l-16.9,17.9v-26.7H179.8z"/>
	<g>
		<path fill="#FFFFFF" d="M280.7-880.9v40.6h9.3v9.9l12.6-9.9h26.8v-40.6H280.7z M325.4-844.2h-24.2l-7.3,5.7v-5.7h-9.3v-32.6h40.8
			V-844.2z"/>
		<rect x="292.8" y="-862.8" fill="#FFFFFF" width="24.6" height="4"/>
		<rect x="292.8" y="-856.7" fill="#FFFFFF" width="6.6" height="4"/>
		<rect x="302.9" y="-856.7" fill="#FFFFFF" width="14.5" height="4"/>
		<rect x="292.8" y="-868.9" fill="#FFFFFF" width="13.1" height="4"/>
		<rect x="309.5" y="-868.9" fill="#FFFFFF" width="7.9" height="4"/>
	</g>
	<g>
		<path fill="#FFFFFF" d="M441.1-852c-1.9-1.6-4.4-2.5-7-2.5c-6.1,0-11,5-11,11.1c0,6.1,5,11.1,11,11.1s11-5,11-11.1v-18.9l26.9-7.4
			v8.7c-1.9-1.6-4.4-2.5-7-2.5c-6.1,0-11,5-11,11.1c0,6.1,5,11.1,11,11.1c5.9,0,10.7-4.7,11-10.5h0v-23l-34.9,9.6V-852z M465-845.5
			c-3.9,0-7-3.2-7-7.1c0-3.9,3.2-7.1,7-7.1c3.9,0,7,3.2,7,7.1C472.1-848.7,468.9-845.5,465-845.5z M434.1-836.4c-3.9,0-7-3.2-7-7.1
			c0-3.9,3.2-7.1,7-7.1c3.9,0,7,3.2,7,7.1C441.1-839.6,438-836.4,434.1-836.4z"/>
		<polygon fill="#FFFFFF" points="440.9,-874.9 440.9,-870.7 476.1,-880.7 476.1,-884.9 		"/>
	</g>
	<path fill="#FFFFFF" d="M616.2-869.7H611c-1.1-7.2-7.4-12.8-14.9-12.8c-7.5,0-13.8,5.5-14.9,12.8h-5.3l-5.4,37.3h51.2L616.2-869.7z
		 M606.5-865.7l-11,6.7l-11-6.7H606.5z M596.1-878.5c5.3,0,9.8,3.8,10.9,8.8h-21.7C586.3-874.7,590.7-878.5,596.1-878.5z
		 M579.1-864.4l16.4,10l17.3-10.5l4.1,28.5h-42L579.1-864.4z"/>
	<g>
		<path fill="#FFFFFF" d="M-12.8-594v46.8H34V-594H-12.8z M30-551.2H-8.8V-590H30V-551.2z"/>
		<polygon fill="#FFFFFF" points="8.5,-558 12.5,-558 12.5,-571.1 16.5,-571.1 16.5,-575.1 12.5,-575.1 12.5,-579.2 16.8,-579.2 
			16.8,-583.2 8.5,-583.2 8.5,-575.1 4.4,-575.1 4.4,-571.1 8.5,-571.1 		"/>
	</g>
	<g>
		<path fill="#FFFFFF" d="M134.1-595.7v46.8h46.8v-46.8H134.1z M176.8-553h-18.1v-17.5c0-4.9-4-8.8-8.8-8.8s-8.8,4-8.8,8.8
			c0,4.9,4,8.8,8.8,8.8c1.8,0,3.5-0.5,4.8-1.5v10.1h-16.6v-38.8h38.8V-553z M154.7-570.4c0,2.7-2.2,4.8-4.8,4.8s-4.8-2.2-4.8-4.8
			c0-2.7,2.2-4.8,4.8-4.8S154.7-573.1,154.7-570.4z"/>
		<polygon fill="#FFFFFF" points="165.4,-566.8 169.4,-566.8 169.4,-570.7 173.2,-570.7 173.2,-574.7 169.4,-574.7 169.4,-578.5 
			165.4,-578.5 165.4,-574.7 161.6,-574.7 161.6,-570.7 165.4,-570.7 		"/>
	</g>
	<g>
		<path fill="#FFFFFF" d="M280.9-594v46.8h46.8V-594H280.9z M323.7-551.2h-38.8V-590h38.8V-551.2z"/>
		<path fill="#FFFFFF" d="M305.1-562.1c1.5,1.6,3.6,2.6,5.9,2.6c0.7,0,1.4-0.1,2.1-0.3l1.5-0.4v-3.5h3.6l0.5-1.3
			c0.3-0.9,0.5-1.8,0.5-2.7c0-4.5-3.6-8.1-8.1-8.1c-1.7,0-3.3,0.6-4.7,1.5c0-0.1,0-0.3,0-0.4c0-3.8-3.1-6.9-6.9-6.9h-10.2v22.1h10.2
			C301.8-559.5,303.8-560.5,305.1-562.1z M311.1-571.8c2.3,0,4.1,1.9,4.1,4.1c0,0,0,0,0,0h-4.6v4.1c-2.1-0.2-3.7-2-3.7-4.1
			C307-569.9,308.8-571.8,311.1-571.8z M293.3-577.6h6.2c1.6,0,2.9,1.3,2.9,2.9c0,0.8-0.3,1.5-0.9,2.1l-1.6,1.6l1.7,1.4
			c0.8,0.7,1.3,1.6,1.3,2.7c0,1.9-1.5,3.5-3.4,3.5h-6.2V-577.6z"/>
	</g>
	<path fill="#FFFFFF" d="M427.7-594v46.8h46.8V-594H427.7z M470.5-551.2h-22.1l1.2-6.1c0.5,0.1,1,0.1,1.5,0.1
		c7.1,0,12.8-5.7,12.8-12.8c0-7.1-5.7-12.8-12.8-12.8s-12.8,5.7-12.8,12.8c0,2.6,0.8,5.1,2.3,7.3l3.3-2.3c-1-1.5-1.6-3.2-1.6-5
		c0-4.9,4-8.8,8.8-8.8s8.8,4,8.8,8.8c0,4.9-4,8.8-8.8,8.8c-0.2,0-0.4,0-0.7,0l1.8-9l-3.9-0.8l-4,19.9h-12.6V-590h38.8V-551.2z"/>
	<g>
		<path fill="#FFFFFF" d="M574.6-594v46.8h46.8V-594H574.6z M617.3-551.2h-38.8V-590h38.8V-551.2z"/>
		<polygon fill="#FFFFFF" points="605.4,-564.5 596.5,-564.5 596.5,-571.3 602.9,-571.3 602.9,-575.3 596.5,-575.3 596.5,-581.6 
			592.5,-581.6 592.5,-560.5 605.4,-560.5 		"/>
	</g>
	<path fill="#FFFFFF" d="M11.7-1024.1c-13.5,0-24.5,11-24.5,24.5c0,13.5,11,24.5,24.5,24.5s24.5-11,24.5-24.5
		C36.2-1013.1,25.2-1024.1,11.7-1024.1z M11.7-979.1c-11.3,0-20.5-9.2-20.5-20.5c0-10.6,8.1-19.4,18.5-20.4v23.3l15.2-5.5l-1.4-3.8
		l-9.8,3.6v-17.6c10.4,1,18.5,9.8,18.5,20.4C32.2-988.3,23-979.1,11.7-979.1z"/>
	<g>
		<path fill="#FFFFFF" d="M475.1-975.4h-13.1v-16.3h-9.6v16.3h-23.7v-33.5l23.1-15.2l23.1,15.2V-975.4z M466.1-979.4h5.1v-27.3
			l-19.1-12.6l-19.1,12.6v27.3h15.7v-16.3h17.6V-979.4z"/>
	</g>
	<path fill="#FFFFFF" d="M611.3-1020.5c-0.7-6.3-6.1-11.1-12.5-11.1c-6.5,0-11.8,4.9-12.5,11.1h-10.3l4.7,43h36.2l4.7-43H611.3z
		 M598.8-1027.6c4.2,0,7.8,3.1,8.5,7.1h-16.9C591-1024.5,594.5-1027.6,598.8-1027.6z M617.1-1016.5l-0.6,5.6H581l-0.6-5.6H617.1z
		 M584.2-981.5l-2.8-25.4h34.6l-2.8,25.4H584.2z"/>
	<g>
		<path fill="#FFFFFF" d="M320.6-1019.9c-4.1-4.1-9.6-6.4-15.3-6.4c-5.8,0-11.2,2.3-15.3,6.4c-8.5,8.5-8.5,22.2,0,30.7
			c2,2,4.3,3.5,6.8,4.6l1.5,9.4h14.1l1.5-9.4c2.5-1.1,4.8-2.6,6.8-4.6C329.1-997.7,329.1-1011.4,320.6-1019.9z M308.9-979.1h-7.3
			l-0.7-4.1c1.4,0.3,2.8,0.4,4.3,0.4c1.5,0,2.9-0.1,4.3-0.4L308.9-979.1z M305.2-986.8c-4.7,0-9.2-1.8-12.5-5.2
			c-6.9-6.9-6.9-18.1,0-25c3.3-3.3,7.8-5.2,12.5-5.2c4.7,0,9.2,1.8,12.5,5.2c6.9,6.9,6.9,18.1,0,25
			C314.4-988.7,310-986.8,305.2-986.8z"/>
		<polygon fill="#FFFFFF" points="305.2,-1004.3 301,-1008.4 295.4,-1002.8 298.2,-1000 301,-1002.8 305.2,-998.6 309.3,-1002.8 
			312.1,-1000 314.9,-1002.8 309.3,-1008.4 		"/>
	</g>
	<g>
		<path fill="#FFFFFF" d="M175.3-1017.4l-31.1-14.9l-1.7,3.6l23.6,11.3h-31.5v38.6h48v-38.6H175.3z M178.5-982.8h-40v-30.6h40
			V-982.8z"/>
		<rect x="142.3" y="-1007.4" fill="#FFFFFF" width="10.7" height="4"/>
		<rect x="142.3" y="-1000" fill="#FFFFFF" width="10.7" height="4"/>
		<rect x="142.3" y="-992.7" fill="#FFFFFF" width="10.7" height="4"/>
		<path fill="#FFFFFF" d="M166.5-988.7c5.1,0,9.3-4.2,9.3-9.3c0-5.1-4.2-9.3-9.3-9.3c-5.1,0-9.3,4.2-9.3,9.3
			C157.2-992.9,161.4-988.7,166.5-988.7z M166.5-1003.4c2.9,0,5.3,2.4,5.3,5.3c0,2.9-2.4,5.3-5.3,5.3c-2.9,0-5.3-2.4-5.3-5.3
			C161.2-1001,163.6-1003.4,166.5-1003.4z"/>
	</g>
	<g>
		<path fill="#FFFFFF" d="M27.7-725.1l-3.2-9.7H1.7l-3.2,9.7h-11.3v34.3H39v-34.3H27.7z M35-694.8H-8.8v-26.3H1.4l3.2-9.7h17.1
			l3.2,9.7H35V-694.8z"/>
		<path fill="#FFFFFF" d="M13.1-721.2c-6.5,0-11.8,5.3-11.8,11.8c0,6.5,5.3,11.8,11.8,11.8c6.5,0,11.8-5.3,11.8-11.8
			C24.9-715.9,19.6-721.2,13.1-721.2z M13.1-701.5c-4.3,0-7.8-3.5-7.8-7.8c0-4.3,3.5-7.8,7.8-7.8c4.3,0,7.8,3.5,7.8,7.8
			C20.9-705.1,17.4-701.5,13.1-701.5z"/>
	</g>
	<path fill="#FFFFFF" d="M136-739.4v35l23.1,14l23.1-14v-35H136z M140-735.4h35.3l-32,30.7l-3.3-2V-735.4z M159.2-695.1l-12.3-7.5
		l31.5-30.1v26L159.2-695.1z"/>
	<g>
		<path fill="#FFFFFF" d="M308.4-741.2l-25.6,25.6l22.5,22.5l25.6-25.6L308.4-741.2z M288.4-715.6l20-20l16.9,16.9l-20,20
			L288.4-715.6z"/>
		<path fill="#FFFFFF" d="M280.2-690.5l18.9-2.2l-16.7-16.7L280.2-690.5z M285.4-700.7l5,5l-5.7,0.7L285.4-700.7z"/>
	</g>
	<g>
		<path fill="#FFFFFF" d="M459.1-707.9l-2.6-2.6c1.1-1.4,1.8-3.1,1.8-4.9c0-2-0.8-3.9-2.2-5.4c-1.4-1.4-3.3-2.2-5.4-2.2
			c-2,0-3.9,0.8-5.4,2.2c-1.4,1.4-2.2,3.3-2.2,5.4c0,2,0.8,3.9,2.2,5.4c1.4,1.4,3.3,2.2,5.4,2.2c1.8,0,3.5-0.6,4.9-1.8l2.6,2.6
			L459.1-707.9z M446.3-710.9c-1.2-1.2-1.8-2.7-1.8-4.4c0-1.7,0.6-3.2,1.8-4.4c1.2-1.2,2.7-1.8,4.4-1.8c1.7,0,3.2,0.6,4.4,1.8
			c1.2,1.2,1.8,2.7,1.8,4.4c0,1.7-0.6,3.2-1.8,4.4c-1.2,1.2-2.7,1.8-4.4,1.8S447.4-709.8,446.3-710.9z"/>
		<polygon fill="#FFFFFF" points="451.3,-718 450,-718 450,-716 448.1,-716 448.1,-714.7 450,-714.7 450,-712.7 451.3,-712.7 
			451.3,-714.7 453.3,-714.7 453.3,-716 451.3,-716 		"/>
	</g>
	<g>
		<path fill="#FFFFFF" d="M620.8-694.2l-7.6-7.6c3.4-4,5.2-9,5.2-14.4c0-6-2.3-11.6-6.6-15.8c-4.2-4.2-9.9-6.6-15.8-6.6
			c-6,0-11.6,2.3-15.8,6.6c-4.2,4.2-6.6,9.9-6.6,15.8s2.3,11.6,6.6,15.8c4.2,4.2,9.9,6.6,15.8,6.6c5.3,0,10.3-1.8,14.4-5.2l7.6,7.6
			L620.8-694.2z M582.9-703.1c-3.5-3.5-5.4-8.1-5.4-13c0-4.9,1.9-9.5,5.4-13c3.5-3.5,8.1-5.4,13-5.4c4.9,0,9.5,1.9,13,5.4
			c3.5,3.5,5.4,8.1,5.4,13c0,4.9-1.9,9.5-5.4,13c-3.5,3.5-8.1,5.4-13,5.4C591-697.7,586.4-699.7,582.9-703.1z"/>
		<rect x="588.3" y="-718.1" fill="#FFFFFF" width="15.4" height="4"/>
	</g>
	<path fill="#FFFFFF" d="M22.4-293.5v-13.1h-16v13.1l-20.6,35H43L22.4-293.5z M10.3-292.4v-10.2h8v10.2l7.2,12.2l-19.3-5.4
		L10.3-292.4z M4.2-282l24.3,6.8l7.5,12.7H-7.3L4.2-282z"/>
	<path fill="#FFFFFF" d="M180.1-279.9c5.2-0.3,9.4-4.7,9.4-10c0-4.8-3.3-8.8-7.8-9.8v-3.7H140v3.7c-4.4,1-7.8,5-7.8,9.8
		c0,5.3,4.2,9.7,9.4,10c2.9,6.9,9.4,11.9,17.2,12.6v4.8h-16.6v4h37.3v-4h-16.7v-4.8C170.6-268,177.2-273,180.1-279.9z M185.5-289.9
		c0,2.7-1.7,4.9-4.1,5.7c0.2-1.2,0.4-2.5,0.4-3.8v-7.6C183.9-294.6,185.5-292.5,185.5-289.9z M136.3-289.9c0-2.5,1.6-4.7,3.8-5.6
		v7.6c0,1.3,0.1,2.6,0.4,3.8C138-285,136.3-287.3,136.3-289.9z M144-288v-11.5h33.7v11.5c0,9.3-7.5,16.8-16.8,16.8
		C151.6-271.2,144-278.7,144-288z"/>
	<g>
		<path fill="#FFFFFF" d="M296-304.3L284-292.4l34.8,34.8l11.9-11.9L296-304.3z M296-298.7l20,20l-6.3,6.3l-20-20L296-298.7z
			 M312.5-269.6l6.3-6.3l6.3,6.3l-6.3,6.3L312.5-269.6z"/>
		<circle fill="#FFFFFF" cx="291.7" cy="-274.1" r="2.5"/>
		<circle fill="#FFFFFF" cx="312.2" cy="-303.6" r="2.5"/>
		<circle fill="#FFFFFF" cx="317.4" cy="-292" r="2.5"/>
	</g>
	<path fill="#FFFFFF" d="M475.3-287.9h1.7v-18h-46.1v18h32.4l-11.4,4v7.5h-4.8v18h13.6v-18h-4.8v-4.6L475.3-287.9z M434.8-302h38.1
		v10h-38.1V-302z M456.7-262.5h-5.6v-10h5.6V-262.5z"/>
	<path fill="#FFFFFF" d="M613.6-299.5v-8.5h-26v8.5h-7.8v41h41.6v-41H613.6z M591.5-304h18v4.5h-18V-304z M587.5-295.5h26h3.8v20.6
		l-33.6-6.3v-14.4H587.5z M583.8-262.5v-14.6l33.6,6.3v8.4H583.8z"/>
	<path fill="#FFFFFF" d="M28.1-152.7c-4.5-4.5-10.5-7-16.9-7c-6.4,0-12.4,2.5-16.9,7c-4.5,4.5-7,10.5-7,16.9c0,6.4,2.5,12.4,7,16.9
		c4.5,4.5,10.5,7,16.9,7c6.4,0,12.4-2.5,16.9-7C37.4-128.2,37.4-143.4,28.1-152.7z M-8.8-135.8c0-5.3,2.1-10.3,5.8-14.1
		c3.8-3.8,8.8-5.8,14.1-5.8c4.7,0,9.1,1.6,12.6,4.5l-28.1,28.1C-7.2-126.7-8.8-131.1-8.8-135.8z M25.2-121.7
		c-3.8,3.8-8.8,5.8-14.1,5.8c-4.7,0-9.1-1.6-12.6-4.5l28.1-28.1C33-140.6,32.5-129,25.2-121.7z"/>
	<g>
		<rect x="174.3" y="-138.7" fill="#FFFFFF" width="8.9" height="4"/>
		
			<rect x="169.7" y="-158.1" transform="matrix(0.7071 0.7071 -0.7071 0.7071 -58.3708 -166.3948)" fill="#FFFFFF" width="4" height="8.9"/>
		
			<rect x="167.2" y="-121.8" transform="matrix(-0.7072 -0.707 0.707 -0.7072 377.7028 -83.2047)" fill="#FFFFFF" width="8.9" height="4"/>
		<path fill="#FFFFFF" d="M131.9-150.2v26.9h13.3l18.3,13.4v-53.6l-18.3,13.4H131.9z M146.8-146.2l0.5-0.5l12.3-9v37.9l-12.2-8.9
			l-0.4-0.6h-11v-18.9h10L146.8-146.2z"/>
	</g>
	<path fill="#FFFFFF" d="M324-161c-3.5-3.5-8.2-5.4-13.1-5.4c-5,0-9.6,1.9-13.1,5.4c-6.8,6.8-7.2,17.5-1.3,24.8l-15,15l8.8,8.8
		l2.8-2.8l-6-6l4.1-4.1l3.7,3.7l2.8-2.8l-3.7-3.7l5.2-5.2c3.3,2.7,7.4,4.1,11.6,4.1c5,0,9.6-1.9,13.1-5.4c3.5-3.5,5.4-8.2,5.4-13.1
		C329.5-152.8,327.5-157.5,324-161z M321.2-137.5c-2.8,2.8-6.4,4.3-10.3,4.3c-3.9,0-7.6-1.5-10.3-4.3c-5.7-5.7-5.7-14.9,0-20.6
		c2.8-2.8,6.4-4.3,10.3-4.3c3.9,0,7.6,1.5,10.3,4.3c2.8,2.8,4.3,6.4,4.3,10.3C325.5-144,324-140.3,321.2-137.5z"/>
	<g>
		<path fill="#FFFFFF" d="M473.9-158.5L453-164l-26.5,26.5l26.5,26.5l26.5-26.5L473.9-158.5z M432.1-137.5l22.1-22.1l16.4,4.4
			l4.4,16.4l-22.1,22.1L432.1-137.5z"/>
		<circle fill="#FFFFFF" cx="463.1" cy="-147.6" r="2.5"/>
	</g>
	<path fill="#FFFFFF" d="M619.2-133.5l-8.2-5c2.9-2.8,4.8-6.7,4.8-11c0-8.4-6.8-15.2-15.2-15.2c-8.4,0-15.2,6.8-15.2,15.2
		c0,4.4,1.9,8.4,4.9,11.2l-8.4,4.8l-2.3,21.7h41.9L619.2-133.5z M600.6-160.7c5.2,0,9.5,3.5,10.8,8.3l-10.8-3.4l-10.8,3.4
		C591.1-157.2,595.4-160.7,600.6-160.7z M589.5-148.1l11.1-3.5l11.1,3.5c-0.7,5.5-5.4,9.8-11.1,9.8
		C594.9-138.4,590.2-142.6,589.5-148.1z M584.1-115.9l1.7-15.2l8.3-4.8c2,1,4.2,1.5,6.6,1.5c2.5,0,4.8-0.6,6.9-1.7l8,4.9l1.7,15.3
		H584.1z"/>
	<path fill="#49423D" d="M9.3,0H1v16h14V5.6L9.3,0z M9.7,2.3l3,3h-3V2.3z M2.3,14.7V1.3h6v5.3h5.3v8.1H2.3z"/>
	<path fill="#FFFFFF" d="M180,12.6c-0.3-14-11.8-25.3-25.9-25.3c-14.1,0-25.6,11.3-25.9,25.3h0v0.5v9.3v9.8h13.8V12.6h-9.8
		c0.3-11.8,10-21.3,21.9-21.3c11.9,0,21.6,9.5,21.9,21.3h-9.8v19.6H180v-9.8v-9.3L180,12.6L180,12.6z M138.1,28.2h-5.8v-5.8v-5.8
		h5.8V28.2z M176,28.2h-5.8V16.6h5.8v5.8V28.2z"/>
	<g>
		<path fill="#FFFFFF" d="M303.3,25.1c10.5-1,18.8-9.9,18.8-20.7h-4c0,9.3-7.5,16.8-16.8,16.8c-9.3,0-16.8-7.5-16.8-16.8h-4
			c0,10.8,8.3,19.7,18.8,20.7v4.8h-13.7v4H317v-4h-13.7V25.1z"/>
		<path fill="#FFFFFF" d="M301.3,18c8.1,0,14.8-6.6,14.8-14.8V-9.3c0-8.1-6.6-14.8-14.8-14.8c-8.1,0-14.8,6.6-14.8,14.8V3.2
			C286.5,11.4,293.2,18,301.3,18z M290.5-9.3c0-5.9,4.8-10.8,10.8-10.8c5.9,0,10.8,4.8,10.8,10.8V3.2c0,5.9-4.8,10.8-10.8,10.8
			c-5.9,0-10.8-4.8-10.8-10.8V-9.3z"/>
	</g>
	<g>
		<path fill="#FFFFFF" d="M464.9-0.2v-2.9c0-9.1-7.4-16.5-16.5-16.5c-9.1,0-16.5,7.4-16.5,16.5v2.9h-5v33.6h43V-0.2H464.9z M436-3.2
			c0-6.9,5.6-12.5,12.5-12.5s12.5,5.6,12.5,12.5v2.9h-25V-3.2z M466,29.4h-35V3.8h35V29.4z"/>
		<rect x="446.5" y="12.3" fill="#FFFFFF" width="4" height="8.5"/>
	</g>
	<g>
		<path fill="#FFFFFF" d="M596.8-0.2v-2.9c0-9.1-7.4-16.5-16.5-16.5c-9.1,0-16.5,7.4-16.5,16.5V3h4v-6.2c0-6.9,5.6-12.5,12.5-12.5
			s12.5,5.6,12.5,12.5v2.9h-14.5v33.6h43V-0.2H596.8z M617.3,29.4h-35V3.8h35V29.4z"/>
		<rect x="597.8" y="12.3" fill="#FFFFFF" width="4" height="8.5"/>
	</g>
	<g>
		<path fill="#FFFFFF" d="M-12.8,125v48.1h41.6V125H-12.8z M24.8,169.1H-8.8V129h33.6V169.1z"/>
		<path fill="#FFFFFF" d="M8,159.2c2.5,0,4.9-0.7,6.9-1.9l3.2,3.9l3.1-2.5l-3.2-3.9c2.2-2.4,3.6-5.7,3.6-9.2
			c0-7.5-6.1-13.7-13.7-13.7c-7.5,0-13.7,6.1-13.7,13.7C-5.7,153,0.5,159.2,8,159.2z M8,135.9c5.3,0,9.7,4.3,9.7,9.7
			c0,2.3-0.8,4.4-2.2,6.1l-2.6-3.2l-3.1,2.5l2.6,3.2c-1.3,0.7-2.8,1.1-4.4,1.1c-5.3,0-9.7-4.3-9.7-9.7C-1.7,140.2,2.7,135.9,8,135.9
			z"/>
		<circle fill="#FFFFFF" cx="8" cy="145.5" r="2.5"/>
		<circle fill="#FFFFFF" cx="-3.7" cy="163.8" r="2.5"/>
	</g>
	<g>
		<circle fill="#FFFFFF" cx="147.4" cy="140.9" r="2.5"/>
		<circle fill="#FFFFFF" cx="162.9" cy="140.9" r="2.5"/>
		<path fill="#FFFFFF" d="M176.6,130.9l-2.9-2.8l-4.3,4.4c-3.7-3.6-8.8-5.8-14.4-5.8c-5.6,0-10.6,2.2-14.4,5.8l-4.3-4.4l-2.9,2.8
			l4.5,4.7c-2.4,3.4-3.8,7.5-3.8,12v21.9c0,0.5,0,1.1,0.1,1.8l0.2,1.8h41.2l0.2-1.8c0-0.5,0.1-1.2,0.1-1.8v-21.9
			c0-4.5-1.4-8.6-3.8-12L176.6,130.9z M155.1,130.7c9.3,0,16.8,7.5,16.8,16.8v1.9h-33.7v-1.9C138.3,138.3,145.8,130.7,155.1,130.7z
			 M138.3,169.1v-15.7h33.7v15.7H138.3z"/>
	</g>
	<g>
		<path fill="#FFFFFF" d="M313.1,141.1l-10.9-11.9l-10.9,11.9l-10.6-7.7v33.2h43v-33.2L313.1,141.1z M319.7,162.7h-35v-21.4l7.2,5.2
			l10.3-11.3l10.3,11.3l7.2-5.2V162.7z"/>
		<rect x="280.7" y="169.1" fill="#FFFFFF" width="43" height="4"/>
	</g>
	<g>
		<path fill="#FFFFFF" d="M450.8,154.8c0.2,0,0.3,0,0.5-0.1c0.3,0,0.6-0.1,0.8-0.1c0.2,0,0.5-0.1,0.7-0.1c0.2,0,0.3-0.1,0.5-0.1
			c3.9-1,7.2-3.6,9.2-6.9c0,0,0-0.1,0.1-0.1c0.2-0.3,0.3-0.6,0.5-0.9c0.1-0.1,0.1-0.3,0.2-0.4c0.1-0.2,0.2-0.5,0.3-0.7
			c0.1-0.3,0.2-0.6,0.4-1c0-0.1,0.1-0.2,0.1-0.3c0,0,0-0.1,0-0.1l0,0c0.4-1.4,0.7-2.9,0.7-4.5V125l-15.4,7.3L434,125v14.5
			c0,8.5,6.9,15.4,15.4,15.4v0c0,0,0,0,0,0c0,0,0,0,0,0C449.8,154.8,450.3,154.8,450.8,154.8z M460.7,131.3v6.3l-6.7-3.2
			L460.7,131.3z M438,139.5v-8.2l22.5,10.6c-0.1,0.3-0.1,0.6-0.2,0.9c0,0.1,0,0.1-0.1,0.2c-0.1,0.2-0.2,0.5-0.3,0.7
			c-0.1,0.2-0.2,0.4-0.3,0.6c0,0.1-0.1,0.2-0.1,0.2c-1.5,2.9-4.1,5.1-7.2,5.9c-0.1,0-0.3,0.1-0.4,0.1c-0.2,0-0.3,0.1-0.5,0.1
			c-0.2,0-0.4,0.1-0.7,0.1c-0.1,0-0.2,0-0.3,0c-0.3,0-0.7,0.1-1.1,0.1C443.1,150.8,438,145.7,438,139.5z"/>
		<g>
			<path fill="#FFFFFF" d="M468.5,157.6l-0.3-1.2l-1.2-0.3c-0.1,0-2-0.4-4.3-0.4c-3.6,0-6.5,1-8.4,2.8c-4.2,4.2-2.6,11.8-2.4,12.7
				l0.3,1.2l1.2,0.3c0.1,0,2,0.4,4.3,0.4c3.6,0,6.5-1,8.4-2.8C470.2,166.1,468.6,158.4,468.5,157.6z M463.2,167.4
				c-1.4,1.4-3.8,1.7-5.5,1.7c-0.8,0-1.6-0.1-2.2-0.1c-0.3-2.2-0.3-5.9,1.5-7.7c1.4-1.4,3.8-1.7,5.5-1.7c0.8,0,1.6,0.1,2.2,0.1
				C465,162,465,165.6,463.2,167.4z"/>
			<path fill="#FFFFFF" d="M436.1,155.6c-2.4,0-4.3,0.4-4.3,0.4l-1.2,0.3l-0.3,1.2c-0.2,0.9-1.8,8.5,2.4,12.7
				c1.9,1.9,4.7,2.8,8.4,2.8c2.4,0,4.3-0.4,4.3-0.4l1.2-0.3l0.3-1.2c0.2-0.9,1.8-8.5-2.4-12.7C442.6,156.6,439.7,155.6,436.1,155.6z
				 M443.1,169c-0.6,0.1-1.3,0.1-2.2,0.1c-1.8,0-4.2-0.3-5.5-1.7c-1.8-1.8-1.8-5.4-1.5-7.7c0.6-0.1,1.3-0.1,2.2-0.1
				c1.8,0,4.2,0.3,5.5,1.7C443.4,163.1,443.4,166.7,443.1,169z"/>
		</g>
	</g>
	<path fill="#FFFFFF" d="M609.9,139.5c-0.3-7.1-6.2-12.9-13.4-12.9c-7.2,0-13.1,5.7-13.4,12.9h-11.5v33.6h49.8v-33.6H609.9z
		 M605.9,143.5v25.6H587v-25.6H605.9z M596.5,130.6c5,0,9.1,3.9,9.4,8.9H587C587.3,134.5,591.5,130.6,596.5,130.6z M575.6,143.5h7.4
		v25.6h-7.4V143.5z M617.3,169.1h-7.4v-25.6h7.4V169.1z"/>
	<g>
		<path fill="#FFFFFF" d="M187.1-432.7l-6.2-9.4l-4.8,3.2v-6.2h-45.1v44.1h45.1v-24.5L187.1-432.7z M181.6-433.8L160.5-420l-1.8-2.7
			l21.1-13.8L181.6-433.8z M172.2-405h-37.1v-36.1h37.1v4.8l-19,12.4l6.2,9.4l12.9-8.4V-405z"/>
		<polygon fill="#FFFFFF" points="149.1,-417.5 146.8,-412.9 151.9,-413.2 153.6,-413.3 149.8,-419 		"/>
	</g>
	<g>
		<circle fill="#FFFFFF" cx="304.5" cy="-427.4" r="2.5"/>
		<path fill="#FFFFFF" d="M328.9-425.4v-4h-5.3c-0.4-3.7-1.8-7.2-4.2-10l3.8-3.8l-2.8-2.8l-3.8,3.8c-2.9-2.4-6.4-3.8-10.1-4.2v-5.3
			h-4v5.3c-3.7,0.4-7.1,1.8-10,4.1l-3.8-3.8l-2.8,2.8l3.8,3.8c-2.4,3-3.8,6.5-4.1,10h-5.3v4h5.3c0.4,3.6,1.8,7.1,4.1,10l-3.8,3.8
			l2.8,2.8l3.8-3.8c2.9,2.3,6.3,3.8,10,4.1v5.3h4v-5.3c3.7-0.4,7.2-1.8,10.1-4.2l3.7,3.7l2.8-2.8l-3.7-3.7c2.3-2.9,3.8-6.3,4.2-10
			H328.9z M315.2-416.6c-2.9,2.9-6.7,4.4-10.7,4.4c-4,0-7.8-1.6-10.7-4.4c-5.9-5.9-5.9-15.5,0-21.4c2.9-2.9,6.7-4.4,10.7-4.4
			c4,0,7.8,1.6,10.7,4.4c2.9,2.9,4.4,6.7,4.4,10.7C319.7-423.3,318.1-419.5,315.2-416.6z"/>
	</g>
	<path fill="#FFFFFF" d="M476.6-444.8h-4.1l-0.9-7.6h-9.1v7.6h-0.6h-4h-15.6l-10.8,13.3l-8.2,30.5h15.8l1.8-6.9h12.6v-10.3h8.3v-2.4
		h9.3v-8h5.5V-444.8z M466.6-448.4h1.6l0.4,3.6h-2V-448.4z M445.3-440.8h12.6v2.7h-8.5v4h8.5v1.8v2.5h-8.5v4h8.5v3.6h-12.6V-440.8z
		 M436.1-405h-7.6l6.6-24.6l6.1-7.5v12.7L436.1-405z M449.6-411.9h-7.5l1.7-6.3h5.8V-411.9z M467.2-424.5h-5.3v-3.7h5.3V-424.5z
		 M472.6-432.6h-10.7v-8.2h0.6h10.1V-432.6z"/>
	<path fill="#FFFFFF" d="M613.4-447.2h-34.5l-8.4,16.5l25.6,30.9l25.6-30.9L613.4-447.2z M617-431.3l-14.7,17.7l6.9-18.2l-3.6-11.5
		h5.4L617-431.3z M590.9-443.2h10.5l3.5,11.4l-8.8,23.2l-8.8-23.2L590.9-443.2z M581.3-443.2h5.4l-3.6,11.5l6.9,18.2l-14.7-17.7
		L581.3-443.2z"/>
	<path fill="#FFFFFF" d="M20.9-447.8h-33.7v46.8H34v-33.7v-13.1H20.9z M30-443.8v5.1h-5.1v-5.1H30z M-8.8-405v-17.4h9.1
		c0.9,4.8,5.2,8.5,10.3,8.5c5.1,0,9.4-3.7,10.3-8.5H30v17.4H-8.8z M4.1-424.4c0-3.6,2.9-6.5,6.5-6.5c3.6,0,6.5,2.9,6.5,6.5
		c0,3.6-2.9,6.5-6.5,6.5C7-417.9,4.1-420.8,4.1-424.4z M30-426.4h-9.1c-0.9-4.8-5.2-8.5-10.3-8.5c-5.1,0-9.4,3.7-10.3,8.5h-9.1
		v-17.4h29.7v9.1H30V-426.4z"/>
	<path fill="#FFFFFF" d="M-12.8,273.6v44.1h51.4v-44.1H-12.8z M34.6,277.6v20.9l-14.1-14.1L7.4,297.6l-3.1-3.1l-0.1-0.1c0,0,0,0,0,0
		l-3.9-3.9l-9.1,9.1v-21.9H34.6z M-8.8,305.2l9.1-9.1l1.2,1.2l16.1,16.3H-8.8V305.2z M23.2,313.7l-13-13.2l10.4-10.4l14.1,14.1v9.5
		H23.2z"/>
	<path fill="#FFFFFF" d="M184.6,270l-51.4,15.9v14.6l9.7,3c-0.3,2.4,0.2,4.9,1.3,7.2c1.6,3,4.2,5.3,7.4,6.3c1.3,0.4,2.6,0.6,4,0.6
		c2,0,4-0.5,5.8-1.4c2.4-1.2,4.2-3.1,5.4-5.3l17.7,5.5V270z M159.6,312.7c-2.1,1.1-4.5,1.3-6.7,0.5c-3.8-1.2-6.1-4.7-6.1-8.5l16.1,5
		C162.1,311,161,312,159.6,312.7z M180.6,311l-43.4-13.4v-8.7l43.4-13.4V311z"/>
	<path fill="#FFFFFF" d="M312.9,279.1l-16.8-6.6l-17,4v8.3v23.6v7.2h4v-8.2l12.7-3l16.7,6.5l18.2-3.4v-31.8L312.9,279.1z
		 M326.7,304.3l-13.8,2.6l-16.8-6.6l-13,3.1v-18.5v-5.1l12.7-3l16.7,6.5l14.2-2.7V304.3z"/>
	<g>
		<path fill="#FFFFFF" d="M452.8,283v-3.1h10.8v-4h-14.8v7.1h-23.7v34.7h51.4V283H452.8z M472.6,313.7h-43.4V287h43.4V313.7z"/>
		<polygon fill="#FFFFFF" points="437.4,306.4 441.4,306.4 441.4,302.3 445.5,302.3 445.5,298.3 441.4,298.3 441.4,294.2 
			437.4,294.2 437.4,298.3 433.3,298.3 433.3,302.3 437.4,302.3 		"/>
		<rect x="456.9" y="294.9" fill="#FFFFFF" width="4.1" height="4.1"/>
		<rect x="463.5" y="294.9" fill="#FFFFFF" width="4.1" height="4.1"/>
		<rect x="456.9" y="301.6" fill="#FFFFFF" width="4.1" height="4.1"/>
		<rect x="463.5" y="301.6" fill="#FFFFFF" width="4.1" height="4.1"/>
	</g>
	<g>
		<path fill="#FFFFFF" d="M596.8,268.6c-13.5,0-24.5,11-24.5,24.5s11,24.5,24.5,24.5s24.5-11,24.5-24.5S610.3,268.6,596.8,268.6z
			 M596.8,313.7c-11.3,0-20.5-9.2-20.5-20.5c0-11.3,9.2-20.5,20.5-20.5c11.3,0,20.5,9.2,20.5,20.5
			C617.3,304.5,608.1,313.7,596.8,313.7z"/>
		<polygon fill="#FFFFFF" points="596.7,288 602,288 602,284 598.8,284 598.8,279.7 594.8,279.7 594.8,284 590.1,284 597.9,299.2 
			591.7,299.2 591.7,303.2 594.8,303.2 594.8,306.6 598.8,306.6 598.8,303.2 604.5,303.2 		"/>
	</g>
</g>
</svg>
