<?xml version="1.0" encoding="utf-8"?>
<!-- Generator: Adobe Illustrator 18.1.1, SVG Export Plug-In . SVG Version: 6.00 Build 0)  -->
<svg version="1.1" id="logo" xmlns="http://www.w3.org/2000/svg" xmlns:xlink="http://www.w3.org/1999/xlink" x="0px" y="0px"
	 viewBox="0 0 328.1 114" enable-background="new 0 0 328.1 114" xml:space="preserve">
<g>
	<g>
		<path fill-rule="evenodd" clip-rule="evenodd" fill="#FFFFFF" d="M174.3,57.5c-1.2-0.1,2.7,1.6,2.1,2.1c-0.7,0.7-4.2-2.9-6.7-1.9
			c-0.1,1.1-1.3,1.1-1.7,1.9c0.6,0.6,2.5,1,2.2,1.5c-0.6,0.8-2.6-1-4.1-1.1c-1.5,0,2.3,2.2,1.7,2.9c-0.9,0.8-2.3-2-3.6-2.7
			c-1.2,0.4-4.2,1.8-4.2,0.8c0.1-0.8,2.4-1,3.4-1.7c-0.5-3.9-1.2-7.8-2.9-10.5c-0.5-0.9,1.2-1.1,1.9-2.9c-2.2-0.6-4-1.7-5.7-2.7
			c-7.7,0.5-11,0.5-14.5-1.3c-0.1-0.1-0.6-0.4-0.6-0.8c-0.1-1.2,2-1.2,3.5-1.2c1.5-1.2,3.3-2.2,5.3-2.9
			c-6.6-8.2-12.7-14.9-19.1-24.2c-1.9-2.7-3.9-4.9-4.6-7.6c-0.3-1.2,0.6-1.3,1.1-1.5c-0.3-0.6-0.7-1.3-0.6-2.1
			c0.4-2.4,3.7-1.6,4.4,0.2c0.4-0.3,0.9-0.8,1.7-0.6c2.2,0.5,2.6,2.5,4,4.6c3.7,5.7,7.4,11.5,11.3,17.1c2.4,3.4,4,5.8,7.4,7.1
			c1,0.4,2.5,0.6,2.5,0.6c1.6,0.3,5.3,0.3,8.4-0.2c3.8-4.1,11.6-4.7,18.9-4.6c-0.2-5,5-7.8,9.2-5.8c1.8-0.4,4.1-1.2,6.2-0.9
			c-1.8,2.1-4.3,3-4.3,3.9c0.5,3.8-1.2,5.4-4.2,5.7c-1,10.9-9.1,14.8-18.9,17c-1,0.3-1.1,2.2-1.7,3.2c1,2,1.4,4.6,2.5,6.5
			c0.7,0.2,4-0.6,4.4,0.2c0.4,0.9-3.3-0.2-4,0.6c-0.7,0.8,4.5,1.1,4.2,2.1C178.9,58.9,175.9,57.6,174.3,57.5z M144,25.2
			c-4.6-5.4-9.8-12.9-13.9-18.5c-0.5-0.6-1.5-1.8-2.3-1.9c-1.1-0.1,3.4,6.2,5.5,9c2.8,4,5.9,7.9,8.9,11.2l2.5,2.7
			c1.4,1.5,3.3,3.9,5.1,5.8c0.9,0.9,1.8,2.5,3.1,2.6c1.5,0.2,2.6-1.1,4.6-0.4c0.5-2.5,3.3-2.7,5-4c-3.2-0.3-5.8,0-8.4-1.3
			c-2.1-1-3-2.3-4.4-4c-4.4-5.6-8.8-13-12.6-19c-1.3-1.9-2.2-5.1-4.8-5.1c-0.9,0,1.4,3.5,2.3,4.8c2,2.9,9.1,13.2,10.6,15.3
			c0.9,1.3,2.2,2.4,2,3.8c-5.8-7.6-10.8-15.2-16.1-23.3c-1.7-2.7-5.1-3.3-0.9,2.4C134.7,12.8,139.2,18.2,144,25.2L144,25.2z
			 M194.5,20.8c-4.2-2.1-7.9,1.3-8.1,5.6c-6.2,0.4-14,0.1-17.8,3.9c1.4,0.7,4.8-0.5,5.9,0.6c-2,1.5-8.3-1-10.1,1.5
			c1.7,1.1,4.6,0,6.5,1.1c-4.9,1.9-9.8-2.5-12,2.3c1.3,0.7,4.5-0.2,5.9,0.6c-2.9,2.3-9-1.3-11.1,1.1c1.5,1.1,5.1,0.2,6.7,1.3
			c-2.7,1.8-7.4-1.6-10.1-0.2c1.4,0.7,4.6,0.6,6.1,1.7c-3.2,1.5-7.2-2.9-9.5-0.6c1.2,1.5,4.2-0.2,4.8,1.3c-2.6,1.4-5.3-0.8-8.2,0
			c2.5,2.6,9.5,1.7,13.2,1.1c4.5-0.8,9.7-1.2,14.3-2.8c1.7-0.6,3-1.5,4.4-2c4.3-1.5,10.1-3.2,6.7-7.4c1.2-0.4,2.1,0.7,2.3,1.7
			c0.7,3.8-3.7,5.1-7.1,6.3c-4.4,1.6-7.8,3.2-11.6,4c-0.8,3.1-2.5,5.2-4.2,7.4c0.8,2.3,2,4.8,2.4,7.4c0.2,1-0.1,2.5,0.9,3.1
			c0.9-3.9-2.4-7.2-1.5-10.3c0.5-1.7,3-2.7,4.2-4.2c0.8-1.1,2-3.5,2.3-2.3c0,0.8-0.1,1.1-0.2,1.8c9.7,0,18.9-4.4,21-12.7
			c0.5-1.9,0.2-3,1-4c0.9-1.1,3.4-0.2,3.9-2.2c0.3-1.3-0.2-2.2,0-3c0.3-1.1,3.4-2.5,2.5-2.6C197.2,19.9,194.6,20.9,194.5,20.8z
			 M163.3,31.4c-0.2,0-0.4,0-0.4,0.2C163.1,31.6,163.3,31.6,163.3,31.4z M152.6,37.5C152.8,37.6,152.5,37.4,152.6,37.5L152.6,37.5z
			 M159.1,43.2c1.6,1.9,5.3,2.1,5.5-1.1c-1.1,0.1-1.7,0.6-2-0.3C162.6,43.2,158.5,42.4,159.1,43.2z M158.3,43.2
			C158.6,43.9,158.8,42.3,158.3,43.2L158.3,43.2z M163.3,45.3c-0.2,0-0.4,0-0.4,0.2C163.1,45.4,163.3,45.5,163.3,45.3z M164.4,50.1
			c1.1,3.1,1.7,7.3,2.7,9.7c1.1-0.2-0.7-2.2,1-1.9c0.9-0.4-0.8-0.3-0.6-1.1c0.2-0.6,1.8-0.4,2.9-0.8c-0.2-3.8-3.2-6.6-1.3-10.1
			C167.1,46.8,165.6,48.3,164.4,50.1z M169.4,49.3c1.5,1.9,1.3,6.1,3.4,7.6c1.1-3.5-3.3-7.3-1-10.9
			C170.1,45.6,169.9,47.8,169.4,49.3z M162.1,47.8C162.2,47.9,162,47.7,162.1,47.8L162.1,47.8z M165.4,57
			C165.6,57.2,165.4,56.9,165.4,57L165.4,57z M166.1,59.6C166.2,59.7,166,59.5,166.1,59.6L166.1,59.6z"/>
		<path fill-rule="evenodd" clip-rule="evenodd" fill="#FFFFFF" d="M193,22.4c-0.2,0.3-0.1,0.4,0.2,0.4c-0.1,1.3-1.4,1.7-2.3,1.1
			C190.7,22.6,191.8,21.7,193,22.4z"/>
		<path fill-rule="evenodd" clip-rule="evenodd" fill="#FFFFFF" d="M180.2,30.3c-0.9,1.2,0.3,1.7,0,2.5
			C177.8,33.3,178.2,30.1,180.2,30.3z"/>
		<path fill-rule="evenodd" clip-rule="evenodd" fill="#FFFFFF" d="M176.4,31c-0.9,1.6,1,1.3,1.1,2.5c-1.4,0.2-2.5-0.4-2.3-1.3
			C175.3,31.6,175.7,31.1,176.4,31z"/>
		<path fill-rule="evenodd" clip-rule="evenodd" fill="#FFFFFF" d="M175.1,33.9c-0.7,1.2,0.9,1.3,0.4,2.1
			C173,36.6,173.1,33.1,175.1,33.9z"/>
		<path fill-rule="evenodd" clip-rule="evenodd" fill="#FFFFFF" d="M167.1,34.8c-0.4,1-0.1,1.5,0.4,2.1c-0.6,0.5-1.3-0.1-1.7-0.4
			C165.8,35.4,166.2,34.8,167.1,34.8z"/>
		<path fill-rule="evenodd" clip-rule="evenodd" fill="#FFFFFF" d="M170.7,35.4c-0.7,0.9,0.2,1.2,0.2,2.1c-0.7,0.5-1.2-0.7-1.9-0.8
			C169.3,35.9,169.5,35.1,170.7,35.4z"/>
		<path fill-rule="evenodd" clip-rule="evenodd" fill="#FFFFFF" d="M152.6,37.5C152.5,37.4,152.8,37.6,152.6,37.5L152.6,37.5z"/>
		<path fill-rule="evenodd" clip-rule="evenodd" fill="#FFFFFF" d="M166.1,37.7c-0.1,0.5-0.7,0.5-0.8,0.8c-0.1,0.7,1.2,1,0.6,1.3
			C163.2,40.8,164.1,36.4,166.1,37.7z"/>
		<path fill-rule="evenodd" clip-rule="evenodd" fill="#FFFFFF" d="M162.1,47.8C162,47.7,162.2,47.9,162.1,47.8L162.1,47.8z"/>
		<path fill-rule="evenodd" clip-rule="evenodd" fill="#FFFFFF" d="M165.4,57C165.4,56.9,165.6,57.2,165.4,57L165.4,57z"/>
		<path fill-rule="evenodd" clip-rule="evenodd" fill="#FFFFFF" d="M166.1,59.6C166,59.5,166.2,59.7,166.1,59.6L166.1,59.6z"/>
	</g>
</g>
<g>
	<path fill="#FFFFFF" d="M0,81.5h2.8v19.6c1.1-1.8,2.8-2.8,5.1-2.8c3.3,0,5.7,2.1,5.7,6.1v9.1h-2.8v-8.9c0-2.6-1.3-3.9-3.6-3.9
		c-2.7,0-4.4,1.7-4.4,4.5v8.2H0V81.5z"/>
	<path fill="#FFFFFF" d="M23.9,91.4c0-1.1,0.9-1.9,1.9-1.9c1,0,1.9,0.8,1.9,1.9c0,1.1-0.9,1.9-1.9,1.9
		C24.8,93.3,23.9,92.5,23.9,91.4z M24.4,98.7h2.8v14.9h-2.8V98.7z"/>
	<path fill="#FFFFFF" d="M38.2,98.7h2.8v2.4c0.9-1.8,2.8-2.8,5.1-2.8c3.3,0,5.7,2.1,5.7,6.1v9.1H49v-8.9c0-2.6-1.3-3.9-3.6-3.9
		c-2.7,0-4.4,1.7-4.4,4.5v8.2h-2.8V98.7z"/>
	<path fill="#FFFFFF" d="M61,106.2c0-4.5,3.5-7.8,7.9-7.8c4.4,0,7.9,3.3,7.9,7.8c0,4.4-3.5,7.8-7.9,7.8C64.5,114,61,110.6,61,106.2z
		 M73.9,106.2c0-3.1-2-5.5-5-5.5c-3,0-5,2.3-5,5.5c0,3.1,2,5.4,5,5.4C71.9,111.6,73.9,109.3,73.9,106.2z"/>
	<path fill="#FFFFFF" d="M89,113.6h-2.8V81.5H89v24.5l6.3-7.3h3.3l-5.6,6.4l6.5,8.5h-3.4l-4.9-6.4c0,0-1.4,1.5-2.2,2.4V113.6z"/>
	<path fill="#FFFFFF" d="M107.7,91.4c0-1.1,0.9-1.9,1.9-1.9c1,0,1.9,0.8,1.9,1.9c0,1.1-0.9,1.9-1.9,1.9
		C108.6,93.3,107.7,92.5,107.7,91.4z M108.2,98.7h2.8v14.9h-2.8V98.7z"/>
	<path fill="#FFFFFF" d="M152.6,104.7c0.8-2.1,1.3-4.7,1.3-7.8h2.7c0,4-0.8,7.4-2.1,10.1l5.4,6.6h-3.6l-3.3-4.1
		c-2.3,2.9-5.6,4.5-9.4,4.5c-5.8,0-10-3.4-10-8.5c0-5.1,3.7-7.5,8-10l-0.5-0.7c-1.8-2.2-2.4-4.1-2.4-6c0-3.5,2.6-6.2,6.5-6.2
		c3.8,0,6.1,2.6,6.1,6.1c0,3-2.3,5.2-5.6,7.3L152.6,104.7z M143,97.4c-3.8,2.2-6.5,4.1-6.5,8.1c0,3.7,2.9,6,7,6c3.3,0,5.9-1.4,7.7-4
		L143,97.4z M148.2,88.6c0-2-1.3-3.6-3.3-3.6c-2.2,0-3.6,1.5-3.6,3.7c0,1.6,0.7,2.9,1.8,4.3l0.8,1C146.5,92.5,148.2,91,148.2,88.6z"
		/>
	<path fill="#FFFFFF" d="M178.7,101.1v-2.4h1.9v-9.3h2.8v9.3h3.7v2.4h-3.7v8.5c0,1.4,0.5,2,1.6,2c0.7,0,1.2-0.3,1.6-0.6l1.2,1.9
		c-0.7,0.6-1.8,1.1-3.1,1.1c-2.4,0-4-1.3-4-4.2v-8.6H178.7z"/>
	<path fill="#FFFFFF" d="M197.3,81.5h2.8v19.6c1.1-1.8,2.8-2.8,5.1-2.8c3.3,0,5.7,2.1,5.7,6.1v9.1h-2.8v-8.9c0-2.6-1.3-3.9-3.6-3.9
		c-2.7,0-4.4,1.7-4.4,4.5v8.2h-2.8V81.5z"/>
	<path fill="#FFFFFF" d="M227.8,111.6c2.3,0,3.7-0.8,4.7-1.9l1.7,1.7c-1.4,1.6-3.4,2.6-6.3,2.6c-4.8,0-8.1-3.3-8.1-7.8
		c0-4.5,3.5-7.8,7.8-7.8c4.7,0,7.6,3.7,7.5,8.8h-12.5C223.1,110,224.9,111.6,227.8,111.6z M232.2,104.9c-0.4-2.4-1.9-4.2-4.7-4.2
		c-2.6,0-4.4,1.6-4.8,4.2H232.2z"/>
	<path fill="#FFFFFF" d="M260.9,111.1v2.5h-2.8V81.5h2.8v19.7c1-1.8,2.9-2.9,5.4-2.9c4.2,0,7.3,3.3,7.3,7.8c0,4.4-3.2,7.8-7.3,7.8
		C263.7,114,261.9,112.9,260.9,111.1z M270.7,106.2c0-3.2-2-5.4-5-5.4c-2.9,0-4.9,2.2-4.9,5.4c0,3.1,2,5.3,4.9,5.3
		C268.7,111.5,270.7,109.3,270.7,106.2z"/>
	<path fill="#FFFFFF" d="M282.6,91.4c0-1.1,0.9-1.9,1.9-1.9c1,0,1.9,0.8,1.9,1.9c0,1.1-0.9,1.9-1.9,1.9
		C283.5,93.3,282.6,92.5,282.6,91.4z M283.1,98.7h2.8v14.9h-2.8V98.7z"/>
	<path fill="#FFFFFF" d="M296.9,98.7h2.8v2.5c0.9-1.9,2.6-2.8,4.3-2.8c1,0,1.7,0.2,2.3,0.6l-0.9,2.3c-0.5-0.3-1-0.4-1.9-0.4
		c-2.2,0-3.9,1.8-3.9,4.8v7.9h-2.8V98.7z"/>
	<path fill="#FFFFFF" d="M312.6,106.2c0-4.5,3.2-7.8,7.4-7.8c2.4,0,4.3,1,5.4,2.9V81.5h2.8v32.1h-2.8v-2.5c-1.1,1.9-2.9,2.9-5.4,2.9
		C315.8,114,312.6,110.6,312.6,106.2z M325.5,106.2c0-3.2-2-5.4-5-5.4c-3,0-5,2.2-5,5.4c0,3.1,2,5.3,5,5.3
		C323.5,111.5,325.5,109.3,325.5,106.2z"/>
</g>
</svg>
