<?xml version="1.0" encoding="utf-8"?>
<!-- Generator: Adobe Illustrator 18.1.1, SVG Export Plug-In . SVG Version: 6.00 Build 0)  -->
<svg version="1.1" id="Layer_1" xmlns="http://www.w3.org/2000/svg" xmlns:xlink="http://www.w3.org/1999/xlink" x="0px" y="0px"
	 viewBox="0 0 243.9 146.2" enable-background="new 0 0 243.9 146.2" xml:space="preserve">
<path fill="#906D4F" d="M74.6,55.4c1.1-0.1,2,0.5,1.8,2.1c-0.2,2-3.8,6.8-10.9,11.3C66,63,71.1,55.7,74.6,55.4 M242.6,57.8
	c-0.3-0.2-4,2.2-4.5,2.8c-0.8,1.1-3.9,7.9-7.5,10.7c-3.4,2.6-6.1,3.2-7.3,3.3c-2.9,0.2-3.1-2-3.1-3.8c0-1.8,1-5.6,1.5-7.2
	c0.5-1.5,1-2.8,0.6-2.9c-0.3-0.1-1.6,0.6-2.3,1c-1.5,0.7-3.4,1.8-5.9,1.8c-4.3,0-6.5-2.6-9.5-2.6c-3,0-5.7,1.4-10.5,5.6
	c-0.9,0.7-1.1,1-1.5,1c-0.3,0-0.4-0.5-0.1-1.4c0.3-0.9,2.8-8.3,3-8.8c0.3-0.7,0.9-2,0.4-2c-0.5,0-4.6,3.8-4.6,3.8
	c-0.2,1-0.6,2.6-1.4,4.1c-0.8,1.5-6.9,10.7-12.7,10.7c-1.8,0-2.4-0.4-2.3-2.8c0.1-4.9,2.3-9.2,2-9.7c-0.3-0.5-1.5,0.8-2,1.3
	c-0.6,0.5-6.6,7.2-9.1,9.3c-1,0.9-2.7,2.3-4.3,2.3c-1.8,0-2-1.5-2-3.2c0-2.7,1.4-7.3,1.6-8c0.3-1,0.5-1.7-0.8-1.3
	c-0.9,0.3-3.1,1-4,2.4c-1.2,1.7-8.6,10-17.6,10.5c-3.3,0.2-4.7-1.2-4.2-5.8c0.4-3.4,2.9-11.3,5.4-18.2c0.2-0.5,0.5-0.9,0.9-1.2
	c0.3-0.1,0.9-0.2,1.3-0.2c5.5,0.2,10.8,0.4,15.6,0.4c14.6,0,37.5-4.8,38.2-13.2c0.2-2.2-0.8-2.6-0.8-2.6c0.1,0.6-0.2,2.1-0.5,2.8
	c-0.9,1.9-4.1,10.2-32.3,10.4c-7.8,0.1-13.4-0.4-19.2-0.9c-0.5,0-0.8-0.1-1-0.4c-0.3-0.4-0.2-0.9,0-1.4c1.3-3.5,2.2-5.7,2.3-6.2
	c0.6-1.5,1.1-3.1,0.8-3.2c-0.4-0.1-3.8,2.3-5.1,3.9c-0.5,0.6-1.5,3.4-2.7,6.8c-2.4-0.1-5-0.2-7.7-0.2c-7.3,0-11.6,1.6-14.1,3.3
	c-1.9,1.4-2,2-2,2c1.4-0.7,3.2-1.5,6.4-1.9c3.7-0.4,9.7-0.3,16.3-0.1c-1.7,5.1-3.5,10.5-4.3,12c-1,2-9.7,12.3-18.1,12.7
	c-4.1,0.2-5-4.2-6.5-7.2c-0.7-1.4-2-3.6-4.4-3.6c-2.4,0-5.5,1.9-10.1,6.4c-0.7,0.7-1.3,1.3-1.7,1.1c-0.5-0.2,0.8-5,1-6.4
	c0.2-1.1,0.1-2.5-1-2.6c-1.1-0.1-3.2,1.1-4.5,1.9C85.1,64.1,76.1,74.6,70,74.6c-3.3,0-4.2-2.5-4.4-4.3c3.1-2,5.8-4,8.1-6
	c3.9-3.4,5.4-5.5,5.9-7.4c0.5-2.4-0.3-3.6-2.8-3.6c-2.4,0-5.6,2.2-7.5,4c-2.4,2.2-7.3,7.6-8,13.9c-7.4,3.7-17.7,6.7-30.8,6.7
	C9.7,77.8,6.5,63.6,6.5,55.3c0-6.2,2-31.5,24.9-46.8C37.4,4.5,41.8,4,44.3,4C49.1,4,55,6.7,54,19.1c-1,11.6-1.8,10.7-2.9,16.9
	c-0.5,2.4-0.4,4.2,0,4.1c0.4-0.1,0.2-2.1,1.8-5.7c3.3-7.6,12.3-21.2,13.8-23.2c1.2-1.7,2.3-3.2,1.8-3.6c-0.2-0.2-3.5,1.6-4.7,2.6
	c-1.1,1-6.7,12.4-7,12.7c-0.3,0.3-0.9,0.2-0.7-0.5c0.2-0.7,2.2-6.1,1.9-12.5c-0.2-7-3.5-9.3-9.1-9.3c-5.4,0-15.5,3.5-25.3,12.5
	C14.3,21.7,1.3,39.9,1.3,57.4c0,14.3,6.8,24.9,25.3,24.9c13.2,0,25.1-4.1,34.6-9.3c0.1,5,2.9,5.9,4.8,5.9c1.9,0,4.3-0.8,6.5-2
	c5.1-2.8,10.2-8.6,11.8-10.2c0.9-0.9,2.2-2.1,2.9-2.1c0.7,0,0.5,1.7-0.1,4c-0.4,1.5-2.8,8.4-3.3,9.5c-0.4,1-0.5,1.5,0,1.4
	c0.5-0.1,4.4-2.5,4.4-2.5c1-1.8,5.2-6.8,7.4-8.6c1.9-1.6,3.1-2.4,4.2-2.4c3.5,0,3.9,11.2,9,11.5c5.1,0.2,12.3-4.3,17.4-8
	c2-1.4,3.7-3,4.1-3c0.5,0.1-0.3,2.6-0.4,4.5c-0.1,1.9-0.7,7.6,3.6,7.6c5.6,0,14.4-5.3,16.7-6.8c2.7-1.8,4.4-3.4,4.9-3.4
	c0.5,0-0.1,1.7-0.3,2.6c-0.1,0.9-1.4,7.6,2.4,7.6c3.5,0.1,8.9-4.9,9.9-5.9c1-1,2.9-2.8,3.3-2.8c0.6,0,0.2,1.6,0,3.2
	c-0.1,1.6,0,5.7,2.6,5.7c2.6,0,6.9-3.2,9.8-5.6c2.2-1.8,4.6-4.4,5.2-4.4c0.5,0-0.2,1.8-0.6,3.1c-0.6,1.7-1.6,4.6-1.7,5
	c-0.3,0.9-0.6,1.9-0.1,1.9c0.4,0,4-2.6,4-2.6c2-4.4,6-11.7,10.6-11.7c3.2,0,5.3,1.1,7.5,1.3c3.1,0.2,4.9-0.5,6.1-0.8
	c1.6-0.3,3.2-1,3.6-0.7c0.3,0.3-0.3,2.2-0.7,3.6c-0.3,1.4-2.9,11.1,2.1,11.1c4.1,0,8.8-3.7,10-4.5c1.3-1,3.4-2.8,4-2.8
	c0.7,0,0.1,2.1-0.2,3.7c-0.2,1.3-4.7,25.2-12.8,38.2c-8.2,13-25.1,27.6-44.8,27.6c-22.5,0-30-24.3-30.6-25.9
	c-0.8-2.4-2.6-8.9-2.6-8.9c-0.7,1.2,0.5,6.7,1.2,9.5c1.3,5.5,9.2,29.5,30,29.5c18,0,34.7-16.4,38-19.3c3.4-3.1,12.7-12.5,17.9-24.7
	c7.4-17.4,6.7-26.9,12.6-40.5C242.1,59,242.9,58,242.6,57.8"/>
<polygon fill="#906D4F" points="111.4,11.6 118.6,11.6 118.6,12.9 115.8,12.9 115.8,20.4 114.2,20.4 114.2,12.9 111.4,12.9 
	111.4,11.6 "/>
<polygon fill="#906D4F" points="123.4,11.6 125,11.6 125,15.1 129,15.1 129,11.6 130.6,11.6 130.6,20.4 129,20.4 129,16.4 125,16.4 
	125,20.4 123.4,20.4 123.4,11.6 "/>
<polygon fill="#906D4F" points="136.8,11.6 143.1,11.6 143.1,12.9 138.3,12.9 138.3,15.2 142.8,15.2 142.8,16.5 138.3,16.5 
	138.3,19.1 143.2,19.1 143.2,20.4 136.8,20.4 136.8,11.6 "/>
</svg>
