<?xml version="1.0" encoding="utf-8"?>
<!-- Generator: Adobe Illustrator 15.0.2, SVG Export Plug-In . SVG Version: 6.00 Build 0)  -->
<!DOCTYPE svg PUBLIC "-//W3C//DTD SVG 1.1//EN" "http://www.w3.org/Graphics/SVG/1.1/DTD/svg11.dtd">
<svg version="1.1" id="Layer_1" xmlns="http://www.w3.org/2000/svg" xmlns:xlink="http://www.w3.org/1999/xlink" x="0px" y="0px"
	 width="282.209px" height="29.115px" viewBox="0 0 282.209 29.115" enable-background="new 0 0 282.209 29.115"
	 xml:space="preserve">
<g>
	<g>
		<path fill="#003767" d="M16.243,16.319v12.796h12.966V16.319H16.243z"/>
		<path fill="#003767" d="M29.215,0L0.007,0.003L0,29.115h13.9c0,0,0-14.476,0-15.159c0.687,0,15.309-0.016,15.309-0.016"/>
	</g>
	<g>
		<path fill="#003767" d="M41.076,0.039h17.478c6.879,0,11.839,1.559,11.839,8.678c0,5.36-3.839,8.32-8.119,8.56l8.919,11.838h-7
			l-8.438-11.438h-8.999v11.438h-5.68V0.039z M57.713,12.956c4.64,0,6.999-0.678,6.999-4.118c0-3.4-2.359-4.081-6.999-4.081H46.755
			v8.198H57.713z"/>
		<path fill="#003767" d="M79.631,0.039h26.077v4.879H85.31v6.759h17.558v4.881H85.31v7.68h20.877v4.878H79.631V0.039z"/>
		<path fill="#003767" d="M113.747,0.039h5.679v24.036h21.077v5.04h-26.756V0.039z"/>
		<path fill="#003767" d="M159.061,0.039h6.48l14.117,29.076h-5.998l-3.041-6.679h-16.758l-3.079,6.679h-6.039L159.061,0.039z
			 M168.381,17.556l-6.08-12.958l-6.08,12.958H168.381z"/>
		<path fill="#003767" d="M191.621,4.918h-12.998V0.039h31.676v4.879h-12.998v24.197h-5.68V4.918z"/>
		<path fill="#003767" d="M217.537,0.039h26.078v4.879h-20.398v6.759h17.559v4.881h-17.559v7.68h20.879v4.878h-26.559V0.039z"/>
		<path fill="#003767" d="M251.652,0.039h14c9.199,0,16.557,3.88,16.557,14.359c0,9.919-6.717,14.717-16.318,14.717h-14.238V0.039z
			 M263.094,24.237c9.678,0,13.436-2.961,13.436-9.76c0-7.119-3.918-9.56-13.436-9.56h-5.76v19.319H263.094z"/>
	</g>
</g>
</svg>
