<svg xmlns="http://www.w3.org/2000/svg" width="282.209" height="29.115" viewBox="0 0 282.209 29.115"><g fill="#FFF"><path d="M16.243 16.32v12.795H29.21V16.32H16.242z"/><path d="M29.215 0L.007.003 0 29.115h13.9v-15.16l15.31-.015"/><g><path d="M41.076.04h17.478c6.88 0 11.84 1.558 11.84 8.677 0 5.36-3.84 8.32-8.12 8.56l8.92 11.838h-7l-8.44-11.438h-8.998v11.438h-5.68V.04zm16.637 12.916c4.64 0 7-.678 7-4.118 0-3.4-2.36-4.08-7-4.08H46.755v8.197h10.958zM79.63.04h26.078v4.878H85.31v6.76h17.558v4.88H85.31v7.68h20.877v4.878H79.63V.04zM113.747.04h5.68v24.035h21.076v5.04h-26.756V.04zM159.06.04h6.48l14.118 29.075h-5.998l-3.04-6.68h-16.76l-3.078 6.68h-6.04L159.063.04zm9.32 17.516L162.3 4.598l-6.08 12.958h12.16zM191.62 4.918h-12.997V.038H210.3v4.88h-13v24.197h-5.68V4.918zM217.537.04h26.078v4.878h-20.398v6.76h17.56v4.88h-17.56v7.68h20.88v4.878h-26.56V.04zM251.652.04h14c9.2 0 16.557 3.88 16.557 14.358 0 9.92-6.718 14.717-16.32 14.717h-14.237V.04zm11.442 24.197c9.678 0 13.436-2.96 13.436-9.76 0-7.12-3.918-9.56-13.436-9.56h-5.76v19.32h5.76z"/></g></g></svg>