<svg xmlns="http://www.w3.org/2000/svg" viewBox="0 0 16 16"><path fill="#FFF" d="M40-1271.3v-40.1h-52.1v40.1h24v4.9H-4.7v4h37.3v-4H15.9v-4.9H40zm-48.1-36H36v19.9H-8.1v-19.9zm0 32v-8.2H36v8.2H-8.1z"/><g fill="#FFF"><path d="M142.3-1311.3v49H177v-49h-34.7zm30.7 4v28.4h-26.7v-28.4H173zm-26.7 40.9v-8.6H173v8.6h-26.7z"/><circle cx="159.6" cy="-1270.8" r="2.5"/></g><g fill="#FFF"><path d="M280.6-1307.3v44.1H330v-44.1h-49.4zm4 4h28.1v36.1h-28.1v-36.1zm41.4 36h-9.3v-36.1h9.3v36.1z"/><circle cx="321.2" cy="-1285.3" r="2.5"/></g><path fill="#FFF" d="M572-1306.4v44.1h49.3v-44.1H572zm45.3 4v7l-20.7 10.9-20.7-10.9v-7h41.4zm-41.3 36v-24.5l20.7 10.9 20.7-10.9v24.5H576z"/><g fill="#FFF"><path d="M476.1-1286.4c0-6.7-3.3-12.6-8.4-15.4v-6h-41.9v45.4h41.9v-8.6c5.1-2.8 8.4-8.7 8.4-15.4zm-12.4 20h-24.3v-9.9h-4v9.9h-5.5v-37.4h5.5v23.6h4v-23.6h24.3v37.4zm4-9.5v-21c2.7 2.5 4.4 6.3 4.4 10.5s-1.7 8.1-4.4 10.5zM447.6-1312.5l5.1-7.1h-4.9l-5.2 7.1M442.8-1319.6h-4.9l-5.2 7.1h5M457.5-1312.5l5.1-7.1h-4.9l-5.1 7.1"/></g><path fill="#FFF" d="M168.1-1176.2l-10.5 10.5 2.5 2.5-7.2 6.5-3.6-3.6-13.5 11.7 7 7-3.9 8.1-5.4 11.3 11.3-5.4 8.1-3.9 7 7 11.7-13.5-3.6-3.6 6.5-7.2 2.5 2.5 10.5-10.5-19.4-19.4zm-25.2 44.8l-1 .5.5-1 3-6.2 1.9 1.9 1.9 1.9-6.3 2.9zm31.1-23.5l-11.8 13.2 3.7 3.7-6.4 7.4-17.9-17.9 7.4-6.4 3.7 3.7 13.2-11.8-2.7-2.7 4.9-4.9 13.5 13.5-4.9 4.9-2.7-2.7zM37-1120.3h-49.8v-45H5.9l4.5 8.1H37v36.9zm-45.8-4H33v-28.9H8.1l-4.5-8.1H-8.8v37zM464.3-1164.4v-2.4h-4v2.4h-15.6v-2.4h-4v2.4h-11.6v44.1h46.8v-44.1h-11.6zm-23.6 4v3.2h4v-3.2h15.6v3.2h4v-3.2h7.6v8.9h-38.8v-8.9h7.6zm-7.6 36.1v-23.2h38.8v23.2h-38.8z"/><g fill="#FFF"><path d="M614.9-1162.8c-4.2-4.2-9.7-6.4-15.6-6.4s-11.4 2.3-15.6 6.4c-8.6 8.6-8.6 22.5 0 31.1.3.3.6.6.9.8l14.7 11.1 14.3-10.8.3-.2.9-.9c8.7-8.6 8.7-22.5.1-31.1zm-2.8 28.3c-.2.2-.5.4-.7.7l-12 9-11.9-8.9-.2-.1c-.2-.2-.5-.4-.7-.6-7-7-7-18.4 0-25.5 3.4-3.4 7.9-5.3 12.7-5.3 4.8 0 9.3 1.9 12.7 5.3 7.1 6.9 7.1 18.4.1 25.4z"/><circle cx="599.3" cy="-1145.8" r="2.5"/></g><path fill="#FFF" d="M305.7-1169.4c-13.5 0-24.5 11-24.5 24.5s11 24.5 24.5 24.5 24.5-11 24.5-24.5-11-24.5-24.5-24.5zm0 4c8.9 0 16.5 5.7 19.3 13.7h-9l-.1 12.5h-8.3v-8.4l4.7-5v-9h-16.2l-4.2 7.6h-4.5c3.4-6.8 10.3-11.4 18.3-11.4zm-9.9 38.5l2.5-4.2 1.7 4.5h10.1l1.5 1.4c-1.9.6-3.8.9-5.9.9-3.6 0-7-1-9.9-2.6zm19.8 0l-3.9-3.7h-9l-3.7-9.8-6.6 11.2c-4.4-3.8-7.3-9.4-7.3-15.7 0-1.8.3-3.6.7-5.2h8.3l4.2-7.6h9.9v3.5l-4.7 5v14h16.3l.1-12.5h6c.1.9.2 1.9.2 2.8.1 7.8-4.2 14.5-10.5 18zM40.8-883.9L14-879.1l-26.8-4.7v41.6l26.9 4.7 12.7-2.2v8.4l6.9-3.2 7 3.1v-10.9h.1v-41.6zm-4 38.3L16-841.9v-33.5l20.8-3.7v33.5zm-45.6-33.5l20.8 3.7v33.5l-20.8-3.7v-33.5zm45.5 41.6l-3.1-1.4-2.9 1.3v-2.9l6-1.1v4.1zM186.2-846.4v-37.7h-53.4v37.7h24.1v3.1l-11.9 7.2 2.1 3.4 11.8-7.2 11.8 7.2 2.1-3.4-11.9-7.2v-3.1h25.3zm-46.7-4l14.4-15.3 10.3 9.4 18-20.4v26.4h-42.7zm40.3-29.7l-15.9 18-10.2-9.3-16.9 17.9v-26.7h43z"/><g fill="#FFF"><path d="M280.7-880.9v40.6h9.3v9.9l12.6-9.9h26.8v-40.6h-48.7zm44.7 36.7h-24.2l-7.3 5.7v-5.7h-9.3v-32.6h40.8v32.6z"/><path d="M292.8-862.8h24.6v4h-24.6zM292.8-856.7h6.6v4h-6.6zM302.9-856.7h14.5v4h-14.5zM292.8-868.9h13.1v4h-13.1zM309.5-868.9h7.9v4h-7.9z"/></g><g fill="#FFF"><path d="M441.1-852c-1.9-1.6-4.4-2.5-7-2.5-6.1 0-11 5-11 11.1s5 11.1 11 11.1 11-5 11-11.1v-18.9l26.9-7.4v8.7c-1.9-1.6-4.4-2.5-7-2.5-6.1 0-11 5-11 11.1s5 11.1 11 11.1c5.9 0 10.7-4.7 11-10.5v-23l-34.9 9.6v13.2zm23.9 6.5c-3.9 0-7-3.2-7-7.1 0-3.9 3.2-7.1 7-7.1 3.9 0 7 3.2 7 7.1.1 3.9-3.1 7.1-7 7.1zm-30.9 9.1c-3.9 0-7-3.2-7-7.1 0-3.9 3.2-7.1 7-7.1 3.9 0 7 3.2 7 7.1 0 3.9-3.1 7.1-7 7.1zM440.9-874.9v4.2l35.2-10v-4.2"/></g><path fill="#FFF" d="M616.2-869.7H611c-1.1-7.2-7.4-12.8-14.9-12.8s-13.8 5.5-14.9 12.8h-5.3l-5.4 37.3h51.2l-5.5-37.3zm-9.7 4l-11 6.7-11-6.7h22zm-10.4-12.8c5.3 0 9.8 3.8 10.9 8.8h-21.7c1-5 5.4-8.8 10.8-8.8zm-17 14.1l16.4 10 17.3-10.5 4.1 28.5h-42l4.2-28z"/><g fill="#FFF"><path d="M-12.8-594v46.8H34V-594h-46.8zM30-551.2H-8.8V-590H30v38.8z"/><path d="M8.5-558h4v-13.1h4v-4h-4v-4.1h4.3v-4H8.5v8.1H4.4v4h4.1"/></g><g fill="#FFF"><path d="M134.1-595.7v46.8h46.8v-46.8h-46.8zm42.7 42.7h-18.1v-17.5c0-4.9-4-8.8-8.8-8.8s-8.8 4-8.8 8.8c0 4.9 4 8.8 8.8 8.8 1.8 0 3.5-.5 4.8-1.5v10.1h-16.6v-38.8h38.8v38.9zm-22.1-17.4c0 2.7-2.2 4.8-4.8 4.8s-4.8-2.2-4.8-4.8c0-2.7 2.2-4.8 4.8-4.8s4.8 2.1 4.8 4.8z"/><path d="M165.4-566.8h4v-3.9h3.8v-4h-3.8v-3.8h-4v3.8h-3.8v4h3.8"/></g><g fill="#FFF"><path d="M280.9-594v46.8h46.8V-594h-46.8zm42.8 42.8h-38.8V-590h38.8v38.8z"/><path d="M305.1-562.1c1.5 1.6 3.6 2.6 5.9 2.6.7 0 1.4-.1 2.1-.3l1.5-.4v-3.5h3.6l.5-1.3c.3-.9.5-1.8.5-2.7 0-4.5-3.6-8.1-8.1-8.1-1.7 0-3.3.6-4.7 1.5v-.4c0-3.8-3.1-6.9-6.9-6.9h-10.2v22.1h10.2c2.3 0 4.3-1 5.6-2.6zm6-9.7c2.3 0 4.1 1.9 4.1 4.1h-4.6v4.1c-2.1-.2-3.7-2-3.7-4.1.1-2.2 1.9-4.1 4.2-4.1zm-17.8-5.8h6.2c1.6 0 2.9 1.3 2.9 2.9 0 .8-.3 1.5-.9 2.1l-1.6 1.6 1.7 1.4c.8.7 1.3 1.6 1.3 2.7 0 1.9-1.5 3.5-3.4 3.5h-6.2v-14.2z"/></g><path fill="#FFF" d="M427.7-594v46.8h46.8V-594h-46.8zm42.8 42.8h-22.1l1.2-6.1c.5.1 1 .1 1.5.1 7.1 0 12.8-5.7 12.8-12.8 0-7.1-5.7-12.8-12.8-12.8s-12.8 5.7-12.8 12.8c0 2.6.8 5.1 2.3 7.3l3.3-2.3c-1-1.5-1.6-3.2-1.6-5 0-4.9 4-8.8 8.8-8.8s8.8 4 8.8 8.8c0 4.9-4 8.8-8.8 8.8h-.7l1.8-9-3.9-.8-4 19.9h-12.6V-590h38.8v38.8z"/><g fill="#FFF"><path d="M574.6-594v46.8h46.8V-594h-46.8zm42.7 42.8h-38.8V-590h38.8v38.8z"/><path d="M605.4-564.5h-8.9v-6.8h6.4v-4h-6.4v-6.3h-4v21.1h12.9"/></g><path fill="#FFF" d="M11.7-1024.1c-13.5 0-24.5 11-24.5 24.5s11 24.5 24.5 24.5 24.5-11 24.5-24.5-11-24.5-24.5-24.5zm0 45c-11.3 0-20.5-9.2-20.5-20.5 0-10.6 8.1-19.4 18.5-20.4v23.3l15.2-5.5-1.4-3.8-9.8 3.6v-17.6c10.4 1 18.5 9.8 18.5 20.4 0 11.3-9.2 20.5-20.5 20.5zM475.1-975.4H462v-16.3h-9.6v16.3h-23.7v-33.5l23.1-15.2 23.1 15.2v33.5zm-9-4h5.1v-27.3l-19.1-12.6-19.1 12.6v27.3h15.7v-16.3h17.6v16.3zM611.3-1020.5c-.7-6.3-6.1-11.1-12.5-11.1-6.5 0-11.8 4.9-12.5 11.1H576l4.7 43h36.2l4.7-43h-10.3zm-12.5-7.1c4.2 0 7.8 3.1 8.5 7.1h-16.9c.6-4 4.1-7.1 8.4-7.1zm18.3 11.1l-.6 5.6H581l-.6-5.6h36.7zm-32.9 35l-2.8-25.4H616l-2.8 25.4h-29z"/><g fill="#FFF"><path d="M320.6-1019.9c-4.1-4.1-9.6-6.4-15.3-6.4-5.8 0-11.2 2.3-15.3 6.4-8.5 8.5-8.5 22.2 0 30.7 2 2 4.3 3.5 6.8 4.6l1.5 9.4h14.1l1.5-9.4c2.5-1.1 4.8-2.6 6.8-4.6 8.4-8.5 8.4-22.2-.1-30.7zm-11.7 40.8h-7.3l-.7-4.1c1.4.3 2.8.4 4.3.4s2.9-.1 4.3-.4l-.6 4.1zm-3.7-7.7c-4.7 0-9.2-1.8-12.5-5.2-6.9-6.9-6.9-18.1 0-25 3.3-3.3 7.8-5.2 12.5-5.2s9.2 1.8 12.5 5.2c6.9 6.9 6.9 18.1 0 25-3.3 3.3-7.7 5.2-12.5 5.2z"/><path d="M305.2-1004.3l-4.2-4.1-5.6 5.6 2.8 2.8 2.8-2.8 4.2 4.2 4.1-4.2 2.8 2.8 2.8-2.8-5.6-5.6"/></g><g fill="#FFF"><path d="M175.3-1017.4l-31.1-14.9-1.7 3.6 23.6 11.3h-31.5v38.6h48v-38.6h-7.3zm3.2 34.6h-40v-30.6h40v30.6z"/><path d="M142.3-1007.4H153v4h-10.7zM142.3-1000H153v4h-10.7zM142.3-992.7H153v4h-10.7zM166.5-988.7c5.1 0 9.3-4.2 9.3-9.3 0-5.1-4.2-9.3-9.3-9.3-5.1 0-9.3 4.2-9.3 9.3 0 5.1 4.2 9.3 9.3 9.3zm0-14.7c2.9 0 5.3 2.4 5.3 5.3s-2.4 5.3-5.3 5.3-5.3-2.4-5.3-5.3 2.4-5.3 5.3-5.3z"/></g><g fill="#FFF"><path d="M27.7-725.1l-3.2-9.7H1.7l-3.2 9.7h-11.3v34.3H39v-34.3H27.7zm7.3 30.3H-8.8v-26.3H1.4l3.2-9.7h17.1l3.2 9.7H35v26.3z"/><path d="M13.1-721.2c-6.5 0-11.8 5.3-11.8 11.8 0 6.5 5.3 11.8 11.8 11.8 6.5 0 11.8-5.3 11.8-11.8 0-6.5-5.3-11.8-11.8-11.8zm0 19.7c-4.3 0-7.8-3.5-7.8-7.8s3.5-7.8 7.8-7.8 7.8 3.5 7.8 7.8c0 4.2-3.5 7.8-7.8 7.8z"/></g><path fill="#FFF" d="M136-739.4v35l23.1 14 23.1-14v-35H136zm4 4h35.3l-32 30.7-3.3-2v-28.7zm19.2 40.3l-12.3-7.5 31.5-30.1v26l-19.2 11.6z"/><g fill="#FFF"><path d="M308.4-741.2l-25.6 25.6 22.5 22.5 25.6-25.6-22.5-22.5zm-20 25.6l20-20 16.9 16.9-20 20-16.9-16.9zM280.2-690.5l18.9-2.2-16.7-16.7-2.2 18.9zm5.2-10.2l5 5-5.7.7.7-5.7z"/></g><g fill="#FFF"><path d="M459.1-707.9l-2.6-2.6c1.1-1.4 1.8-3.1 1.8-4.9 0-2-.8-3.9-2.2-5.4-1.4-1.4-3.3-2.2-5.4-2.2-2 0-3.9.8-5.4 2.2-1.4 1.4-2.2 3.3-2.2 5.4 0 2 .8 3.9 2.2 5.4 1.4 1.4 3.3 2.2 5.4 2.2 1.8 0 3.5-.6 4.9-1.8l2.6 2.6.9-.9zm-12.8-3c-1.2-1.2-1.8-2.7-1.8-4.4 0-1.7.6-3.2 1.8-4.4 1.2-1.2 2.7-1.8 4.4-1.8 1.7 0 3.2.6 4.4 1.8 1.2 1.2 1.8 2.7 1.8 4.4 0 1.7-.6 3.2-1.8 4.4-1.2 1.2-2.7 1.8-4.4 1.8s-3.3-.7-4.4-1.8z"/><path d="M451.3-718H450v2h-1.9v1.3h1.9v2h1.3v-2h2v-1.3h-2"/></g><g fill="#FFF"><path d="M620.8-694.2l-7.6-7.6c3.4-4 5.2-9 5.2-14.4 0-6-2.3-11.6-6.6-15.8-4.2-4.2-9.9-6.6-15.8-6.6-6 0-11.6 2.3-15.8 6.6-4.2 4.2-6.6 9.9-6.6 15.8s2.3 11.6 6.6 15.8c4.2 4.2 9.9 6.6 15.8 6.6 5.3 0 10.3-1.8 14.4-5.2l7.6 7.6 2.8-2.8zm-37.9-8.9c-3.5-3.5-5.4-8.1-5.4-13s1.9-9.5 5.4-13c3.5-3.5 8.1-5.4 13-5.4s9.5 1.9 13 5.4c3.5 3.5 5.4 8.1 5.4 13s-1.9 9.5-5.4 13c-3.5 3.5-8.1 5.4-13 5.4s-9.5-2-13-5.4z"/><path d="M588.3-718.1h15.4v4h-15.4z"/></g><path fill="#FFF" d="M22.4-293.5v-13.1h-16v13.1l-20.6 35H43l-20.6-35zm-12.1 1.1v-10.2h8v10.2l7.2 12.2-19.3-5.4 4.1-6.8zM4.2-282l24.3 6.8 7.5 12.7H-7.3L4.2-282zM180.1-279.9c5.2-.3 9.4-4.7 9.4-10 0-4.8-3.3-8.8-7.8-9.8v-3.7H140v3.7c-4.4 1-7.8 5-7.8 9.8 0 5.3 4.2 9.7 9.4 10 2.9 6.9 9.4 11.9 17.2 12.6v4.8h-16.6v4h37.3v-4h-16.7v-4.8c7.8-.7 14.4-5.7 17.3-12.6zm5.4-10c0 2.7-1.7 4.9-4.1 5.7.2-1.2.4-2.5.4-3.8v-7.6c2.1 1 3.7 3.1 3.7 5.7zm-49.2 0c0-2.5 1.6-4.7 3.8-5.6v7.6c0 1.3.1 2.6.4 3.8-2.5-.9-4.2-3.2-4.2-5.8zm7.7 1.9v-11.5h33.7v11.5c0 9.3-7.5 16.8-16.8 16.8S144-278.7 144-288z"/><g fill="#FFF"><path d="M296-304.3l-12 11.9 34.8 34.8 11.9-11.9-34.7-34.8zm0 5.6l20 20-6.3 6.3-20-20 6.3-6.3zm16.5 29.1l6.3-6.3 6.3 6.3-6.3 6.3-6.3-6.3z"/><circle cx="291.7" cy="-274.1" r="2.5"/><circle cx="312.2" cy="-303.6" r="2.5"/><circle cx="317.4" cy="-292" r="2.5"/></g><path fill="#FFF" d="M475.3-287.9h1.7v-18h-46.1v18h32.4l-11.4 4v7.5h-4.8v18h13.6v-18h-4.8v-4.6l19.4-6.9zM434.8-302h38.1v10h-38.1v-10zm21.9 39.5h-5.6v-10h5.6v10zM613.6-299.5v-8.5h-26v8.5h-7.8v41h41.6v-41h-7.8zm-22.1-4.5h18v4.5h-18v-4.5zm-4 8.5h29.8v20.6l-33.6-6.3v-14.4h3.8zm-3.7 33v-14.6l33.6 6.3v8.4h-33.6zM28.1-152.7c-4.5-4.5-10.5-7-16.9-7-6.4 0-12.4 2.5-16.9 7-4.5 4.5-7 10.5-7 16.9 0 6.4 2.5 12.4 7 16.9 4.5 4.5 10.5 7 16.9 7 6.4 0 12.4-2.5 16.9-7 9.3-9.3 9.3-24.5 0-33.8zm-36.9 16.9c0-5.3 2.1-10.3 5.8-14.1 3.8-3.8 8.8-5.8 14.1-5.8 4.7 0 9.1 1.6 12.6 4.5l-28.1 28.1c-2.8-3.6-4.4-8-4.4-12.7zm34 14.1c-3.8 3.8-8.8 5.8-14.1 5.8-4.7 0-9.1-1.6-12.6-4.5l28.1-28.1c6.4 7.9 5.9 19.5-1.4 26.8z"/><g fill="#FFF"><path d="M174.3-138.7h8.9v4h-8.9zM173.417-158.192l2.828 2.828-6.293 6.293-2.83-2.83zM173.346-115.278l-6.294-6.292 2.828-2.83 6.294 6.293zM131.9-150.2v26.9h13.3l18.3 13.4v-53.6l-18.3 13.4h-13.3zm14.9 4l.5-.5 12.3-9v37.9l-12.2-8.9-.4-.6h-11v-18.9h10.8z"/></g><path fill="#FFF" d="M324-161c-3.5-3.5-8.2-5.4-13.1-5.4-5 0-9.6 1.9-13.1 5.4-6.8 6.8-7.2 17.5-1.3 24.8l-15 15 8.8 8.8 2.8-2.8-6-6 4.1-4.1 3.7 3.7 2.8-2.8-3.7-3.7 5.2-5.2c3.3 2.7 7.4 4.1 11.6 4.1 5 0 9.6-1.9 13.1-5.4 3.5-3.5 5.4-8.2 5.4-13.1.2-5.1-1.8-9.8-5.3-13.3zm-2.8 23.5c-2.8 2.8-6.4 4.3-10.3 4.3-3.9 0-7.6-1.5-10.3-4.3-5.7-5.7-5.7-14.9 0-20.6 2.8-2.8 6.4-4.3 10.3-4.3 3.9 0 7.6 1.5 10.3 4.3 2.8 2.8 4.3 6.4 4.3 10.3 0 3.8-1.5 7.5-4.3 10.3z"/><g fill="#FFF"><path d="M473.9-158.5L453-164l-26.5 26.5L453-111l26.5-26.5-5.6-21zm-41.8 21l22.1-22.1 16.4 4.4 4.4 16.4-22.1 22.1-20.8-20.8z"/><circle cx="463.1" cy="-147.6" r="2.5"/></g><path fill="#FFF" d="M619.2-133.5l-8.2-5c2.9-2.8 4.8-6.7 4.8-11 0-8.4-6.8-15.2-15.2-15.2-8.4 0-15.2 6.8-15.2 15.2 0 4.4 1.9 8.4 4.9 11.2l-8.4 4.8-2.3 21.7h41.9l-2.3-21.7zm-18.6-27.2c5.2 0 9.5 3.5 10.8 8.3l-10.8-3.4-10.8 3.4c1.3-4.8 5.6-8.3 10.8-8.3zm-11.1 12.6l11.1-3.5 11.1 3.5c-.7 5.5-5.4 9.8-11.1 9.8-5.7-.1-10.4-4.3-11.1-9.8zm-5.4 32.2l1.7-15.2 8.3-4.8c2 1 4.2 1.5 6.6 1.5 2.5 0 4.8-.6 6.9-1.7l8 4.9 1.7 15.3h-33.2z"/><path fill="#49423D" d="M9.3 0H1v16h14V5.6L9.3 0zm.4 2.3l3 3h-3v-3zM2.3 14.7V1.3h6v5.3h5.3v8.1H2.3z"/><path fill="#FFF" d="M180 12.6c-.3-14-11.8-25.3-25.9-25.3-14.1 0-25.6 11.3-25.9 25.3v19.6H142V12.6h-9.8c.3-11.8 10-21.3 21.9-21.3C166-8.7 175.7.8 176 12.6h-9.8v19.6H180V12.6zm-41.9 15.6h-5.8V16.6h5.8v11.6zm37.9 0h-5.8V16.6h5.8v11.6z"/><g fill="#FFF"><path d="M303.3 25.1c10.5-1 18.8-9.9 18.8-20.7h-4c0 9.3-7.5 16.8-16.8 16.8s-16.8-7.5-16.8-16.8h-4c0 10.8 8.3 19.7 18.8 20.7v4.8h-13.7v4H317v-4h-13.7v-4.8z"/><path d="M301.3 18c8.1 0 14.8-6.6 14.8-14.8V-9.3c0-8.1-6.6-14.8-14.8-14.8-8.1 0-14.8 6.6-14.8 14.8V3.2c0 8.2 6.7 14.8 14.8 14.8zM290.5-9.3c0-5.9 4.8-10.8 10.8-10.8 5.9 0 10.8 4.8 10.8 10.8V3.2c0 5.9-4.8 10.8-10.8 10.8-5.9 0-10.8-4.8-10.8-10.8V-9.3z"/></g><g fill="#FFF"><path d="M464.9-.2v-2.9c0-9.1-7.4-16.5-16.5-16.5s-16.5 7.4-16.5 16.5v2.9h-5v33.6h43V-.2h-5zm-28.9-3c0-6.9 5.6-12.5 12.5-12.5S461-10.1 461-3.2v2.9h-25v-2.9zm30 32.6h-35V3.8h35v25.6z"/><path d="M446.5 12.3h4v8.5h-4z"/></g><g fill="#FFF"><path d="M596.8-.2v-2.9c0-9.1-7.4-16.5-16.5-16.5s-16.5 7.4-16.5 16.5V3h4v-6.2c0-6.9 5.6-12.5 12.5-12.5s12.5 5.6 12.5 12.5v2.9h-14.5v33.6h43V-.2h-24.5zm20.5 29.6h-35V3.8h35v25.6z"/><path d="M597.8 12.3h4v8.5h-4z"/></g><g fill="#FFF"><path d="M-12.8 125v48.1h41.6V125h-41.6zm37.6 44.1H-8.8V129h33.6v40.1z"/><path d="M8 159.2c2.5 0 4.9-.7 6.9-1.9l3.2 3.9 3.1-2.5-3.2-3.9c2.2-2.4 3.6-5.7 3.6-9.2 0-7.5-6.1-13.7-13.7-13.7-7.5 0-13.7 6.1-13.7 13.7.1 7.4 6.3 13.6 13.8 13.6zm0-23.3c5.3 0 9.7 4.3 9.7 9.7 0 2.3-.8 4.4-2.2 6.1l-2.6-3.2-3.1 2.5 2.6 3.2c-1.3.7-2.8 1.1-4.4 1.1-5.3 0-9.7-4.3-9.7-9.7 0-5.4 4.4-9.7 9.7-9.7z"/><circle cx="8" cy="145.5" r="2.5"/><circle cx="-3.7" cy="163.8" r="2.5"/></g><g fill="#FFF"><circle cx="147.4" cy="140.9" r="2.5"/><circle cx="162.9" cy="140.9" r="2.5"/><path d="M176.6 130.9l-2.9-2.8-4.3 4.4c-3.7-3.6-8.8-5.8-14.4-5.8s-10.6 2.2-14.4 5.8l-4.3-4.4-2.9 2.8 4.5 4.7c-2.4 3.4-3.8 7.5-3.8 12v21.9c0 .5 0 1.1.1 1.8l.2 1.8h41.2l.2-1.8c0-.5.1-1.2.1-1.8v-21.9c0-4.5-1.4-8.6-3.8-12l4.5-4.7zm-21.5-.2c9.3 0 16.8 7.5 16.8 16.8v1.9h-33.7v-1.9c.1-9.2 7.6-16.8 16.9-16.8zm-16.8 38.4v-15.7H172v15.7h-33.7z"/></g><g fill="#FFF"><path d="M313.1 141.1l-10.9-11.9-10.9 11.9-10.6-7.7v33.2h43v-33.2l-10.6 7.7zm6.6 21.6h-35v-21.4l7.2 5.2 10.3-11.3 10.3 11.3 7.2-5.2v21.4zM280.7 169.1h43v4h-43z"/></g><g fill="#FFF"><path d="M450.8 154.8c.2 0 .3 0 .5-.1.3 0 .6-.1.8-.1.2 0 .5-.1.7-.1.2 0 .3-.1.5-.1 3.9-1 7.2-3.6 9.2-6.9 0 0 0-.1.1-.1.2-.3.3-.6.5-.9.1-.1.1-.3.2-.4.1-.2.2-.5.3-.7.1-.3.2-.6.4-1 0-.1.1-.2.1-.3v-.1c.4-1.4.7-2.9.7-4.5V125l-15.4 7.3L434 125v14.5c0 8.5 6.9 15.4 15.4 15.4.4-.1.9-.1 1.4-.1zm9.9-23.5v6.3l-6.7-3.2 6.7-3.1zm-22.7 8.2v-8.2l22.5 10.6c-.1.3-.1.6-.2.9 0 .1 0 .1-.1.2-.1.2-.2.5-.3.7l-.3.6c0 .1-.1.2-.1.2-1.5 2.9-4.1 5.1-7.2 5.9-.1 0-.3.1-.4.1-.2 0-.3.1-.5.1s-.4.1-.7.1h-.3c-.3 0-.7.1-1.1.1-6.2 0-11.3-5.1-11.3-11.3zM468.5 157.6l-.3-1.2-1.2-.3c-.1 0-2-.4-4.3-.4-3.6 0-6.5 1-8.4 2.8-4.2 4.2-2.6 11.8-2.4 12.7l.3 1.2 1.2.3c.1 0 2 .4 4.3.4 3.6 0 6.5-1 8.4-2.8 4.1-4.2 2.5-11.9 2.4-12.7zm-5.3 9.8c-1.4 1.4-3.8 1.7-5.5 1.7-.8 0-1.6-.1-2.2-.1-.3-2.2-.3-5.9 1.5-7.7 1.4-1.4 3.8-1.7 5.5-1.7.8 0 1.6.1 2.2.1.3 2.3.3 5.9-1.5 7.7zM436.1 155.6c-2.4 0-4.3.4-4.3.4l-1.2.3-.3 1.2c-.2.9-1.8 8.5 2.4 12.7 1.9 1.9 4.7 2.8 8.4 2.8 2.4 0 4.3-.4 4.3-.4l1.2-.3.3-1.2c.2-.9 1.8-8.5-2.4-12.7-1.9-1.8-4.8-2.8-8.4-2.8zm7 13.4c-.6.1-1.3.1-2.2.1-1.8 0-4.2-.3-5.5-1.7-1.8-1.8-1.8-5.4-1.5-7.7.6-.1 1.3-.1 2.2-.1 1.8 0 4.2.3 5.5 1.7 1.8 1.8 1.8 5.4 1.5 7.7z"/></g><path fill="#FFF" d="M609.9 139.5c-.3-7.1-6.2-12.9-13.4-12.9s-13.1 5.7-13.4 12.9h-11.5v33.6h49.8v-33.6h-11.5zm-4 4v25.6H587v-25.6h18.9zm-9.4-12.9c5 0 9.1 3.9 9.4 8.9H587c.3-5 4.5-8.9 9.5-8.9zm-20.9 12.9h7.4v25.6h-7.4v-25.6zm41.7 25.6h-7.4v-25.6h7.4v25.6z"/><g fill="#FFF"><path d="M187.1-432.7l-6.2-9.4-4.8 3.2v-6.2H131v44.1h45.1v-24.5l11-7.2zm-5.5-1.1L160.5-420l-1.8-2.7 21.1-13.8 1.8 2.7zm-9.4 28.8h-37.1v-36.1h37.1v4.8l-19 12.4 6.2 9.4 12.9-8.4v17.9z"/><path d="M149.1-417.5l-2.3 4.6 5.1-.3 1.7-.1-3.8-5.7"/></g><g fill="#FFF"><circle cx="304.5" cy="-427.4" r="2.5"/><path d="M328.9-425.4v-4h-5.3c-.4-3.7-1.8-7.2-4.2-10l3.8-3.8-2.8-2.8-3.8 3.8c-2.9-2.4-6.4-3.8-10.1-4.2v-5.3h-4v5.3c-3.7.4-7.1 1.8-10 4.1l-3.8-3.8-2.8 2.8 3.8 3.8c-2.4 3-3.8 6.5-4.1 10h-5.3v4h5.3c.4 3.6 1.8 7.1 4.1 10l-3.8 3.8 2.8 2.8 3.8-3.8c2.9 2.3 6.3 3.8 10 4.1v5.3h4v-5.3c3.7-.4 7.2-1.8 10.1-4.2l3.7 3.7 2.8-2.8-3.7-3.7c2.3-2.9 3.8-6.3 4.2-10h5.3zm-13.7 8.8c-2.9 2.9-6.7 4.4-10.7 4.4-4 0-7.8-1.6-10.7-4.4-5.9-5.9-5.9-15.5 0-21.4 2.9-2.9 6.7-4.4 10.7-4.4 4 0 7.8 1.6 10.7 4.4 2.9 2.9 4.4 6.7 4.4 10.7.1 4-1.5 7.8-4.4 10.7z"/></g><path fill="#FFF" d="M476.6-444.8h-4.1l-.9-7.6h-9.1v7.6h-20.2l-10.8 13.3-8.2 30.5h15.8l1.8-6.9h12.6v-10.3h8.3v-2.4h9.3v-8h5.5v-16.2zm-10-3.6h1.6l.4 3.6h-2v-3.6zm-21.3 7.6h12.6v2.7h-8.5v4h8.5v4.3h-8.5v4h8.5v3.6h-12.6v-18.6zm-9.2 35.8h-7.6l6.6-24.6 6.1-7.5v12.7l-5.1 19.4zm13.5-6.9h-7.5l1.7-6.3h5.8v6.3zm17.6-12.6h-5.3v-3.7h5.3v3.7zm5.4-8.1h-10.7v-8.2h10.7v8.2zM613.4-447.2h-34.5l-8.4 16.5 25.6 30.9 25.6-30.9-8.3-16.5zm3.6 15.9l-14.7 17.7 6.9-18.2-3.6-11.5h5.4l6 12zm-26.1-11.9h10.5l3.5 11.4-8.8 23.2-8.8-23.2 3.6-11.4zm-9.6 0h5.4l-3.6 11.5 6.9 18.2-14.7-17.7 6-12zM20.9-447.8h-33.7v46.8H34V-447.8H20.9zm9.1 4v5.1h-5.1v-5.1H30zM-8.8-405v-17.4H.3c.9 4.8 5.2 8.5 10.3 8.5 5.1 0 9.4-3.7 10.3-8.5H30v17.4H-8.8zm12.9-19.4c0-3.6 2.9-6.5 6.5-6.5s6.5 2.9 6.5 6.5-2.9 6.5-6.5 6.5-6.5-2.9-6.5-6.5zm25.9-2h-9.1c-.9-4.8-5.2-8.5-10.3-8.5-5.1 0-9.4 3.7-10.3 8.5h-9.1v-17.4h29.7v9.1H30v8.3zM-12.8 273.6v44.1h51.4v-44.1h-51.4zm47.4 4v20.9l-14.1-14.1-13.1 13.2-3.1-3.1-.1-.1-3.9-3.9-9.1 9.1v-21.9h43.4zm-43.4 27.6l9.1-9.1 1.2 1.2 16.1 16.3H-8.8v-8.4zm32 8.5l-13-13.2 10.4-10.4 14.1 14.1v9.5H23.2zM184.6 270l-51.4 15.9v14.6l9.7 3c-.3 2.4.2 4.9 1.3 7.2 1.6 3 4.2 5.3 7.4 6.3 1.3.4 2.6.6 4 .6 2 0 4-.5 5.8-1.4 2.4-1.2 4.2-3.1 5.4-5.3l17.7 5.5V270zm-25 42.7c-2.1 1.1-4.5 1.3-6.7.5-3.8-1.2-6.1-4.7-6.1-8.5l16.1 5c-.8 1.3-1.9 2.3-3.3 3zm21-1.7l-43.4-13.4v-8.7l43.4-13.4V311zM312.9 279.1l-16.8-6.6-17 4v39.1h4v-8.2l12.7-3 16.7 6.5 18.2-3.4v-31.8l-17.8 3.4zm13.8 25.2l-13.8 2.6-16.8-6.6-13 3.1v-23.6l12.7-3 16.7 6.5 14.2-2.7v23.7z"/><g fill="#FFF"><path d="M452.8 283v-3.1h10.8v-4h-14.8v7.1h-23.7v34.7h51.4V283h-23.7zm19.8 30.7h-43.4V287h43.4v26.7z"/><path d="M437.4 306.4h4v-4.1h4.1v-4h-4.1v-4.1h-4v4.1h-4.1v4h4.1M456.9 294.9h4.1v4.1h-4.1zM463.5 294.9h4.1v4.1h-4.1zM456.9 301.6h4.1v4.1h-4.1zM463.5 301.6h4.1v4.1h-4.1z"/></g><g fill="#FFF"><path d="M596.8 268.6c-13.5 0-24.5 11-24.5 24.5s11 24.5 24.5 24.5 24.5-11 24.5-24.5-11-24.5-24.5-24.5zm0 45.1c-11.3 0-20.5-9.2-20.5-20.5s9.2-20.5 20.5-20.5 20.5 9.2 20.5 20.5-9.2 20.5-20.5 20.5z"/><path d="M596.7 288h5.3v-4h-3.2v-4.3h-4v4.3h-4.7l7.8 15.2h-6.2v4h3.1v3.4h4v-3.4h5.7"/></g></svg>